{"glyphs":{"0":{"ha":725,"x_min":83,"x_max":642,"o":"m 642 303 q 629 184 642 242 q 585 82 617 126 q 500 11 554 38 q 363 -15 446 -15 q 225 11 279 -15 q 140 82 171 38 q 96 184 108 126 q 83 303 83 242 q 96 423 83 365 q 140 524 108 481 q 226 594 172 568 q 363 621 279 621 q 499 594 446 621 q 585 524 553 568 q 629 423 617 481 q 642 303 642 365 m 543 303 q 536 397 543 353 q 510 472 529 440 q 455 523 490 504 q 363 542 419 542 q 270 523 306 542 q 215 472 235 504 q 189 397 196 440 q 182 303 182 353 q 189 210 182 253 q 215 135 196 167 q 270 84 235 103 q 363 65 306 65 q 455 84 419 65 q 510 135 490 103 q 536 210 529 167 q 543 303 543 253 z "},"1":{"ha":356,"x_min":28,"x_max":244,"o":"m 149 0 l 149 506 l 140 506 l 49 472 l 28 472 l 28 529 l 165 608 l 244 608 l 244 0 l 149 0 z "},"2":{"ha":600,"x_min":67,"x_max":531,"o":"m 67 0 l 67 94 q 119 132 86 110 q 189 181 151 154 q 265 238 226 207 q 335 300 304 268 q 386 365 367 332 q 406 428 406 397 q 399 470 406 450 q 378 506 393 490 q 340 531 364 522 q 281 540 315 540 q 92 440 176 540 l 71 440 l 71 563 q 120 589 93 578 q 176 607 147 600 q 232 617 204 614 q 281 621 260 621 q 446 574 381 621 q 511 428 511 526 q 478 327 511 375 q 399 236 446 279 q 299 157 351 193 q 208 94 247 121 l 208 86 l 531 86 l 531 0 l 67 0 z "},"3":{"ha":622,"x_min":46,"x_max":544,"o":"m 544 40 q 524 -53 544 -12 q 465 -121 503 -93 q 376 -163 428 -149 q 264 -178 325 -178 q 208 -176 238 -178 q 150 -168 179 -174 q 94 -156 121 -162 q 46 -137 67 -149 l 46 -15 l 74 -15 q 108 -42 86 -28 q 156 -68 131 -56 q 210 -89 182 -81 q 264 -97 239 -97 q 392 -64 346 -97 q 439 40 439 -31 q 419 112 439 82 q 368 160 399 142 q 300 186 338 178 q 228 194 263 194 l 189 194 l 189 281 l 228 281 q 290 285 260 281 q 345 305 321 290 q 384 344 369 319 q 399 411 399 369 q 360 506 399 471 q 263 540 322 540 q 206 531 232 540 q 160 509 181 522 q 122 481 139 496 q 92 454 104 465 l 63 454 l 63 576 q 156 608 103 594 q 263 621 210 621 q 363 605 318 621 q 440 560 408 589 q 488 494 471 532 q 504 411 504 456 q 490 340 504 369 q 454 292 476 311 q 403 262 432 272 q 346 247 375 251 l 346 239 q 492 174 439 228 q 544 40 544 119 z "},"4":{"ha":644,"x_min":33,"x_max":613,"o":"m 490 47 l 490 -178 l 394 -178 l 394 47 l 33 47 l 33 110 l 418 608 l 490 608 l 490 133 l 613 133 l 613 47 l 490 47 m 394 432 l 386 432 l 161 142 l 161 133 l 394 133 l 394 432 z "},"5":{"ha":622,"x_min":28,"x_max":557,"o":"m 294 515 l 253 318 q 335 299 292 313 q 406 265 378 285 q 495 183 463 226 q 528 75 528 140 q 510 -19 528 26 q 456 -99 492 -64 q 365 -156 419 -135 q 239 -178 311 -178 q 128 -165 186 -178 q 28 -132 71 -153 l 28 -11 l 49 -11 q 78 -39 60 -24 q 122 -67 97 -54 q 177 -89 147 -81 q 239 -97 207 -97 q 322 -83 288 -97 q 379 -44 357 -68 q 412 11 401 -19 q 422 75 422 42 q 400 142 422 114 q 340 194 378 171 q 253 231 303 219 q 154 243 203 243 l 140 267 l 214 608 l 557 608 l 557 515 l 294 515 z "},"6":{"ha":694,"x_min":83,"x_max":618,"o":"m 618 249 q 602 144 618 192 q 554 61 586 96 q 473 6 522 26 q 356 -14 424 -14 q 219 11 272 -14 q 135 74 165 36 q 94 158 106 113 q 83 246 83 204 q 95 400 83 328 q 135 538 107 472 q 208 665 163 604 q 318 786 253 726 l 450 786 l 450 765 q 300 632 365 711 q 207 440 235 553 l 215 440 q 284 474 246 465 q 356 483 322 483 q 553 418 489 483 q 618 249 618 353 m 513 249 q 504 308 513 279 q 477 357 496 336 q 428 390 458 378 q 356 403 399 403 q 266 384 307 403 q 199 338 225 365 q 191 293 193 317 q 189 246 189 269 q 197 178 189 210 q 223 121 204 146 q 274 81 242 96 q 356 67 306 67 q 437 84 406 67 q 485 128 468 101 q 507 187 501 154 q 513 249 513 219 z "},"7":{"ha":617,"x_min":33,"x_max":572,"o":"m 240 -178 l 142 -178 l 142 -150 l 431 518 l 431 526 l 360 522 l 33 522 l 33 608 l 572 608 l 572 588 l 240 -178 z "},"8":{"ha":707,"x_min":83,"x_max":624,"o":"m 624 208 q 552 40 624 94 q 353 -14 481 -14 q 245 1 294 -14 q 160 44 196 15 q 103 115 124 72 q 83 215 83 158 q 94 276 83 250 q 125 325 106 303 q 171 368 144 347 q 226 411 197 389 l 226 419 q 138 506 164 461 q 111 599 111 550 q 176 747 111 692 q 353 801 240 801 q 460 784 413 801 q 540 738 507 767 q 590 668 572 708 q 607 582 607 628 q 597 519 607 547 q 568 469 586 492 q 528 431 550 447 q 481 401 506 414 l 481 393 q 587 313 550 357 q 624 208 624 268 m 501 582 q 465 683 501 644 q 353 721 428 721 q 251 688 286 721 q 217 599 217 656 q 268 500 217 546 q 407 435 319 454 q 448 464 431 450 q 477 494 465 478 q 495 532 489 511 q 501 582 501 553 m 518 208 q 501 266 518 240 q 456 311 485 292 q 389 346 428 331 q 306 372 350 361 q 222 307 256 346 q 188 215 188 268 q 202 147 188 175 q 241 101 217 119 q 294 75 265 83 q 353 67 324 67 q 416 74 386 67 q 469 99 446 82 q 505 142 492 115 q 518 208 518 169 z "},"9":{"ha":708,"x_min":76,"x_max":625,"o":"m 625 371 q 612 216 625 289 q 569 76 599 143 q 494 -55 540 8 q 382 -178 447 -118 l 250 -178 l 250 -157 q 331 -94 292 -129 q 404 -18 371 -60 q 463 72 438 24 q 501 176 488 121 l 493 176 q 420 138 463 151 q 344 124 378 124 q 228 142 278 124 q 144 194 178 161 q 94 273 111 228 q 76 371 76 318 q 142 552 76 483 q 344 621 208 621 q 483 597 428 621 q 569 538 538 574 q 613 457 600 501 q 625 371 625 413 m 519 371 q 510 437 519 406 q 481 491 501 468 q 428 527 461 514 q 344 540 394 540 q 263 525 294 540 q 213 485 231 510 q 188 431 194 461 q 182 371 182 400 q 191 309 182 339 q 220 256 200 279 q 271 219 240 233 q 344 204 301 204 q 393 211 369 204 q 438 228 417 218 q 478 252 460 239 q 510 279 497 265 q 517 324 515 300 q 519 371 519 347 z "},"\r":{"ha":0,"x_min":0,"x_max":0,"o":""}," ":{"ha":361,"x_min":0,"x_max":0,"o":""},"!":{"ha":311,"x_min":83,"x_max":228,"o":"m 189 197 l 121 197 l 107 324 l 107 608 l 203 608 l 203 324 l 189 197 m 228 72 q 207 21 228 42 q 156 0 186 0 q 104 21 125 0 q 83 72 83 42 q 104 124 83 103 q 156 144 125 144 q 207 124 186 144 q 228 72 228 103 z "},"\"":{"ha":442,"x_min":83,"x_max":358,"o":"m 329 328 l 290 328 l 261 476 l 261 608 l 358 608 l 358 476 l 329 328 m 151 328 l 113 328 l 83 476 l 83 608 l 181 608 l 181 476 l 151 328 z "},"#":{"ha":654,"x_min":56,"x_max":599,"o":"m 444 167 l 408 0 l 331 0 l 367 167 l 228 167 l 192 0 l 114 0 l 150 167 l 56 167 l 56 244 l 167 244 l 192 365 l 56 365 l 56 443 l 208 443 l 244 608 l 322 608 l 286 443 l 425 443 l 461 608 l 539 608 l 503 443 l 599 443 l 599 365 l 486 365 l 461 244 l 599 244 l 599 167 l 444 167 m 269 365 l 244 244 l 383 244 l 408 365 l 269 365 z "},"$":{"ha":654,"x_min":83,"x_max":571,"o":"m 571 147 q 518 54 571 94 q 369 3 465 14 l 369 -122 l 299 -122 l 299 0 q 176 17 233 3 q 83 46 118 31 l 83 142 l 104 142 q 199 103 150 122 q 299 81 247 85 l 299 268 q 227 302 265 285 q 157 341 189 319 q 104 389 125 363 q 83 449 83 415 q 102 511 83 483 q 151 558 121 539 q 219 589 181 578 q 299 603 258 600 l 299 694 l 369 694 l 369 603 q 479 584 436 599 q 543 561 522 569 l 544 457 l 524 457 q 463 494 497 472 q 369 522 428 515 l 369 331 q 440 297 404 315 q 506 255 476 278 q 553 205 535 232 q 571 147 571 178 m 299 524 q 210 496 236 518 q 185 450 185 474 q 220 401 185 422 q 299 361 256 379 l 299 524 m 467 147 q 439 192 467 171 q 369 235 411 214 l 369 83 q 440 106 413 90 q 467 147 467 122 z "},"%":{"ha":797,"x_min":56,"x_max":742,"o":"m 742 164 q 735 102 742 132 q 711 48 728 72 q 665 9 694 24 q 589 -6 635 -6 q 513 9 543 -6 q 466 48 483 24 q 442 102 449 72 q 435 164 435 132 q 442 226 435 196 q 467 281 449 257 q 514 318 485 304 q 589 332 543 332 q 664 318 635 332 q 710 281 693 304 q 735 226 728 257 q 742 164 742 196 m 211 -21 l 147 -21 l 147 -3 l 581 636 l 642 636 l 642 611 l 211 -21 m 363 454 q 356 392 363 422 q 332 339 349 363 q 285 301 315 315 q 210 286 256 286 q 134 301 164 286 q 87 339 104 315 q 63 392 69 363 q 56 454 56 422 q 63 517 56 486 q 88 571 69 547 q 135 608 106 594 q 210 622 164 622 q 285 608 256 622 q 331 571 314 594 q 356 517 349 547 q 363 454 363 486 m 669 164 q 655 242 669 213 q 589 272 640 272 q 522 242 538 272 q 507 164 507 213 q 522 85 507 115 q 589 56 538 56 q 655 85 640 56 q 669 164 669 115 m 290 454 q 276 533 290 503 q 210 564 261 564 q 143 533 158 564 q 128 454 128 503 q 143 376 128 406 q 210 346 158 346 q 276 376 261 346 q 290 454 290 406 z "},"&":{"ha":765,"x_min":56,"x_max":765,"o":"m 765 -31 q 723 -49 742 -43 q 668 -54 704 -54 q 583 -26 625 -54 q 514 36 542 3 l 482 74 q 390 11 438 36 q 268 -14 342 -14 q 177 1 217 -14 q 110 42 138 17 q 69 97 83 67 q 56 160 56 128 q 69 228 56 197 q 101 285 82 260 q 145 329 121 310 q 192 361 169 349 l 225 381 l 207 401 q 172 453 188 424 q 156 513 156 482 q 192 609 156 572 q 303 646 228 646 q 414 608 378 646 q 450 514 450 569 q 424 437 450 475 q 368 378 399 399 l 340 358 l 364 329 l 464 211 l 483 186 q 522 232 501 203 q 560 292 542 261 q 592 353 578 324 q 611 399 606 382 l 710 399 l 710 378 q 680 324 697 354 q 640 260 663 293 q 592 192 618 226 q 536 128 567 157 l 560 101 q 613 51 582 76 q 668 26 643 26 q 712 35 699 26 q 744 57 725 44 l 765 57 l 765 -31 m 369 514 q 367 534 369 522 q 356 556 364 546 q 335 574 349 567 q 303 582 322 582 q 252 559 268 582 q 236 513 236 536 q 249 469 236 493 q 275 431 261 446 l 296 407 l 321 424 q 358 468 347 442 q 369 514 369 494 m 411 151 l 285 297 l 267 322 l 238 301 q 209 280 224 292 q 182 251 194 268 q 162 213 169 235 q 154 160 154 190 q 165 119 154 138 q 191 89 175 101 q 227 70 207 76 q 268 64 247 64 q 324 69 300 64 q 366 85 347 75 q 400 106 385 94 q 431 129 415 117 l 411 151 z "},"'":{"ha":264,"x_min":83,"x_max":181,"o":"m 151 328 l 113 328 l 83 476 l 83 608 l 181 608 l 181 476 l 151 328 z "},"(":{"ha":408,"x_min":83,"x_max":353,"o":"m 274 -210 q 188 -101 224 -161 q 129 26 153 -40 q 94 164 106 93 q 83 304 83 235 q 94 444 83 374 q 129 582 106 515 q 188 709 153 649 q 274 818 224 769 l 353 818 l 353 797 q 231 572 274 690 q 188 304 188 453 q 231 37 188 156 q 353 -189 274 -82 l 353 -210 l 274 -210 z "},")":{"ha":408,"x_min":56,"x_max":325,"o":"m 325 304 q 314 164 325 235 q 279 26 303 93 q 220 -101 256 -40 q 135 -210 185 -161 l 56 -210 l 56 -189 q 178 37 135 -82 q 221 304 221 156 q 178 572 221 453 q 56 797 135 690 l 56 818 l 135 818 q 220 709 185 769 q 279 582 256 649 q 314 444 303 515 q 325 304 325 374 z "},"*":{"ha":524,"x_min":56,"x_max":468,"o":"m 451 582 l 292 657 l 275 483 l 242 483 l 229 656 l 72 582 l 56 611 l 199 713 l 56 814 l 72 842 l 231 767 l 247 942 l 281 942 l 293 767 l 451 842 l 468 814 l 325 713 l 468 611 l 451 582 z "},"+":{"ha":725,"x_min":89,"x_max":636,"o":"m 404 283 l 404 1 l 324 1 l 324 283 l 89 283 l 89 365 l 324 365 l 324 649 l 404 649 l 404 365 l 636 365 l 636 283 l 404 283 z "},",":{"ha":329,"x_min":72,"x_max":257,"o":"m 257 -22 q 232 -126 257 -83 q 163 -201 207 -169 l 126 -161 q 158 -122 142 -146 q 175 -51 175 -99 q 168 -22 175 -35 q 150 -3 161 -10 q 97 17 121 -3 q 72 67 72 38 q 92 116 72 96 q 142 136 113 136 q 193 119 171 136 q 229 76 215 101 q 250 24 243 51 q 257 -22 257 -3 z "},"-":{"ha":628,"x_min":111,"x_max":517,"o":"m 111 256 l 111 351 l 517 351 l 517 256 l 111 256 z "},".":{"ha":294,"x_min":75,"x_max":219,"o":"m 219 58 q 199 7 219 28 q 147 -14 178 -14 q 96 7 117 -14 q 75 58 75 28 q 96 110 75 89 q 147 131 117 131 q 199 110 178 131 q 219 58 219 89 z "},"/":{"ha":431,"x_min":28,"x_max":403,"o":"m 121 -89 l 28 -89 l 28 -68 l 310 844 l 403 844 l 403 824 l 121 -89 z "},":":{"ha":294,"x_min":75,"x_max":219,"o":"m 219 536 q 199 485 219 506 q 147 464 178 464 q 96 485 117 464 q 75 536 75 506 q 96 588 75 567 q 147 608 117 608 q 199 588 178 608 q 219 536 219 567 m 219 58 q 199 7 219 28 q 147 -14 178 -14 q 96 7 117 -14 q 75 58 75 28 q 96 110 75 89 q 147 131 117 131 q 199 110 178 131 q 219 58 219 89 z "},";":{"ha":329,"x_min":72,"x_max":257,"o":"m 224 536 q 203 485 224 506 q 151 464 182 464 q 100 485 121 464 q 79 536 79 506 q 100 588 79 567 q 151 608 121 608 q 203 588 182 608 q 224 536 224 567 m 257 -22 q 232 -126 257 -83 q 163 -201 207 -169 l 126 -161 q 158 -122 142 -146 q 175 -51 175 -99 q 168 -22 175 -35 q 150 -3 161 -10 q 97 17 121 -3 q 72 67 72 38 q 92 116 72 96 q 142 136 113 136 q 193 119 171 136 q 229 76 215 101 q 250 24 243 51 q 257 -22 257 -3 z "},"<":{"ha":725,"x_min":93,"x_max":632,"o":"m 93 294 l 93 349 l 632 625 l 632 536 l 207 324 l 207 321 l 632 107 l 632 19 l 93 294 z "},"=":{"ha":725,"x_min":89,"x_max":636,"o":"m 89 432 l 89 513 l 636 513 l 636 432 l 89 432 m 89 136 l 89 217 l 636 217 l 636 136 l 89 136 z "},">":{"ha":725,"x_min":93,"x_max":632,"o":"m 93 18 l 93 107 l 518 319 l 518 322 l 93 536 l 93 625 l 632 349 l 632 294 l 93 18 z "},"?":{"ha":506,"x_min":83,"x_max":422,"o":"m 422 478 q 415 430 422 450 q 394 395 407 410 q 366 369 382 381 q 333 344 350 357 q 303 322 318 333 q 275 299 289 311 q 250 254 250 276 l 236 197 l 179 197 l 171 256 q 196 331 171 301 q 251 383 221 360 q 306 427 281 406 q 331 478 331 449 q 306 533 331 515 q 243 550 281 550 q 167 528 199 550 q 108 475 136 506 l 83 475 l 83 581 q 154 609 115 597 q 243 621 193 621 q 309 615 276 621 q 367 592 342 608 q 407 549 392 576 q 422 478 422 521 m 278 72 q 257 21 278 42 q 206 0 236 0 q 154 21 175 0 q 133 72 133 42 q 154 124 133 103 q 206 144 175 144 q 257 124 236 144 q 278 72 278 103 z "},"@":{"ha":863,"x_min":56,"x_max":807,"o":"m 807 338 q 786 242 807 285 q 733 167 765 199 q 660 119 700 136 q 581 101 619 101 q 520 117 549 101 q 481 151 492 132 l 472 151 q 424 117 453 132 q 358 101 396 101 q 312 112 335 101 q 270 142 289 122 q 240 192 251 163 q 228 260 228 222 q 243 341 228 301 q 284 412 258 381 q 345 462 310 443 q 422 481 381 481 l 590 481 l 547 221 q 547 215 547 218 q 546 210 546 213 q 554 184 546 197 q 586 171 563 171 q 638 183 613 171 q 685 217 664 194 q 718 269 706 239 q 731 338 731 300 q 705 438 731 396 q 639 505 679 479 q 548 543 599 531 q 447 556 497 556 q 342 539 399 556 q 239 488 286 522 q 160 402 192 454 q 129 279 129 350 q 161 165 129 213 q 241 88 193 118 q 344 43 289 57 q 447 29 400 29 q 488 32 464 29 q 539 40 513 35 q 590 52 565 44 q 632 68 615 60 l 653 68 l 653 4 q 554 -23 604 -17 q 447 -29 504 -29 q 305 -10 375 -29 q 179 49 235 10 q 90 145 124 88 q 56 279 56 203 q 90 428 56 364 q 181 535 125 492 q 307 600 238 578 q 447 622 376 622 q 599 599 532 622 q 713 538 667 576 q 783 447 758 499 q 807 338 807 396 m 426 413 q 386 400 406 413 q 351 367 367 388 q 326 318 335 346 q 317 260 317 290 q 333 197 317 219 q 381 175 349 175 q 423 189 400 175 q 465 231 446 203 l 497 413 l 426 413 z "},"A":{"ha":731,"x_min":28,"x_max":703,"o":"m 599 0 l 539 122 l 192 122 l 132 0 l 28 0 l 28 8 l 317 608 l 415 608 l 703 8 l 703 0 l 599 0 m 372 500 l 364 500 l 228 206 l 503 206 l 372 500 z "},"B":{"ha":758,"x_min":111,"x_max":675,"o":"m 675 325 q 655 201 675 260 q 595 98 635 143 q 494 26 556 53 q 353 0 433 0 l 111 0 l 111 878 l 208 878 l 208 608 l 353 608 q 476 590 417 608 q 578 535 535 571 q 649 447 622 500 q 675 325 675 393 m 572 325 q 551 422 572 383 q 495 485 529 461 q 420 519 461 508 q 340 529 379 529 l 208 529 l 208 79 l 340 79 q 438 98 394 79 q 510 150 481 117 q 556 228 540 183 q 572 325 572 274 z "},"C":{"ha":769,"x_min":83,"x_max":686,"o":"m 686 25 q 559 -8 615 -1 q 450 -14 503 -14 q 310 10 376 -14 q 193 75 243 33 q 113 175 143 117 q 83 303 83 233 q 113 431 83 372 q 193 531 143 489 q 310 597 243 574 q 450 621 376 621 q 559 615 503 621 q 686 582 615 608 l 686 474 l 665 474 q 557 522 607 504 q 450 540 507 540 q 350 524 397 540 q 267 478 303 508 q 210 403 232 447 q 189 303 189 358 q 210 202 189 246 q 267 128 232 158 q 350 83 303 99 q 450 67 397 67 q 557 85 507 67 q 665 133 607 103 l 686 133 l 686 25 z "},"D":{"ha":897,"x_min":83,"x_max":814,"o":"m 814 304 q 789 185 814 243 q 717 83 764 128 q 603 13 671 39 q 449 -14 535 -14 q 294 13 363 -14 q 179 83 226 39 q 108 185 132 128 q 83 304 83 243 q 101 406 83 357 q 151 494 118 454 q 231 564 183 535 q 340 608 279 593 l 369 550 l 365 538 q 234 449 282 511 q 186 304 186 388 q 206 212 186 254 q 260 138 225 169 q 343 89 294 107 q 449 71 392 71 q 554 89 506 71 q 638 138 603 107 q 692 212 672 169 q 711 304 711 254 q 685 410 711 363 q 610 489 658 457 l 193 756 l 251 843 l 672 561 q 777 448 740 515 q 814 304 814 381 z "},"E":{"ha":797,"x_min":83,"x_max":714,"o":"m 714 321 q 710 269 714 292 l 190 269 q 221 190 199 228 q 276 125 243 153 q 353 81 310 97 q 447 65 397 65 q 563 84 504 65 q 681 133 621 103 l 701 133 l 701 25 q 565 -8 631 -1 q 447 -14 500 -14 q 308 10 374 -14 q 192 78 242 35 q 113 180 142 121 q 83 308 83 239 q 104 435 83 378 q 165 534 125 493 q 263 598 204 575 q 394 621 321 621 q 508 603 451 621 q 611 550 565 586 q 685 457 657 514 q 714 321 714 400 m 608 351 q 592 422 606 388 q 551 483 578 457 q 485 526 525 510 q 394 542 446 542 q 305 526 342 542 q 243 484 268 510 q 205 424 218 458 q 189 351 192 389 l 608 351 z "},"F":{"ha":636,"x_min":111,"x_max":575,"o":"m 207 519 l 207 129 l 531 129 l 531 42 l 207 42 l 207 -278 l 111 -278 l 111 608 l 575 608 l 575 519 l 207 519 z "},"G":{"ha":803,"x_min":83,"x_max":692,"o":"m 596 -111 l 596 -33 l 599 4 l 590 4 q 537 -8 575 -3 q 446 -14 499 -14 q 306 10 372 -14 q 191 75 240 33 q 113 175 142 117 q 83 303 83 233 q 113 431 83 372 q 193 531 143 489 q 310 597 243 574 q 450 621 376 621 q 559 615 503 621 q 686 582 615 608 l 686 474 l 665 474 q 557 522 607 504 q 450 540 507 540 q 350 524 397 540 q 267 478 303 508 q 210 403 232 447 q 189 303 189 358 q 210 202 189 246 q 266 128 231 158 q 348 83 301 99 q 446 67 394 67 q 535 79 496 67 q 596 103 575 92 l 596 356 l 692 356 l 692 -111 l 596 -111 z "},"H":{"ha":831,"x_min":111,"x_max":747,"o":"m 747 321 q 731 206 747 260 q 691 111 714 153 q 644 41 668 69 q 606 0 619 13 l 488 0 l 488 10 q 539 63 511 32 q 591 134 567 94 q 631 221 615 174 q 647 321 647 268 q 635 397 647 358 q 599 465 624 435 q 535 515 574 496 q 440 533 496 533 q 356 519 394 533 q 288 485 318 506 q 238 442 258 464 q 207 403 217 419 l 207 0 l 111 0 l 111 878 l 207 878 l 207 590 l 203 513 l 211 513 q 244 545 222 526 q 294 581 265 564 q 361 609 324 597 q 440 621 399 621 q 579 596 521 621 q 675 529 638 571 q 730 433 713 488 q 747 321 747 379 z "},"I":{"ha":318,"x_min":111,"x_max":207,"o":"m 111 0 l 111 608 l 207 608 l 207 0 l 111 0 z "},"J":{"ha":318,"x_min":49,"x_max":207,"o":"m 207 -97 q 180 -196 207 -158 q 93 -251 153 -233 l 79 -256 l 49 -199 l 63 -192 q 99 -153 86 -181 q 111 -97 111 -126 l 111 608 l 207 608 l 207 -97 z "},"K":{"ha":694,"x_min":111,"x_max":667,"o":"m 546 0 l 214 272 l 206 272 l 206 0 l 111 0 l 111 878 l 206 878 l 206 358 l 214 358 l 538 608 l 658 608 l 658 588 l 300 321 l 300 313 l 667 21 l 667 0 l 546 0 z "},"L":{"ha":593,"x_min":111,"x_max":593,"o":"m 111 0 l 111 608 l 207 608 l 207 86 l 593 86 l 593 0 l 111 0 z "},"M":{"ha":1239,"x_min":83,"x_max":1156,"o":"m 1156 310 q 1144 222 1156 267 q 1113 135 1132 176 q 1071 58 1094 93 q 1024 0 1047 22 l 906 0 l 906 21 q 953 62 926 35 q 1004 126 981 89 q 1044 210 1028 164 q 1060 310 1060 257 q 1006 476 1060 414 q 851 539 951 539 q 762 519 797 539 q 705 469 726 500 q 675 399 683 438 q 667 324 667 361 l 667 0 l 572 0 l 572 324 q 567 390 572 353 q 542 460 561 428 q 485 516 522 493 q 388 539 449 539 q 233 476 288 539 q 179 310 179 414 q 195 210 179 257 q 235 126 211 164 q 285 62 258 89 q 333 21 313 35 l 333 0 l 215 0 q 168 58 192 22 q 126 135 144 93 q 95 222 107 176 q 83 310 83 267 q 164 538 83 456 q 388 621 244 621 q 475 610 438 621 q 540 581 513 599 q 586 542 568 563 q 615 503 604 521 l 624 503 q 652 542 633 521 q 699 581 671 563 q 764 610 726 599 q 851 621 801 621 q 1075 538 994 621 q 1156 310 1156 456 z "},"N":{"ha":857,"x_min":111,"x_max":746,"o":"m 671 0 l 208 469 l 200 469 l 200 0 l 111 0 l 111 608 l 192 608 l 649 144 l 657 144 l 657 608 l 746 608 l 746 0 l 671 0 z "},"O":{"ha":897,"x_min":83,"x_max":814,"o":"m 814 304 q 789 185 814 243 q 717 83 764 128 q 603 13 671 39 q 449 -14 535 -14 q 294 13 363 -14 q 179 83 226 39 q 108 185 132 128 q 83 304 83 243 q 109 425 83 368 q 182 526 135 482 q 297 595 229 569 q 449 621 364 621 q 601 595 533 621 q 715 526 668 569 q 788 425 763 482 q 814 304 814 368 m 711 304 q 692 397 711 354 q 638 470 672 439 q 554 519 603 501 q 449 536 506 536 q 343 519 392 536 q 260 470 294 501 q 206 397 225 439 q 186 304 186 354 q 206 212 186 254 q 260 138 225 169 q 343 89 294 107 q 449 71 392 71 q 554 89 506 71 q 638 138 603 107 q 692 212 672 169 q 711 304 711 254 z "},"P":{"ha":754,"x_min":111,"x_max":671,"o":"m 671 313 q 651 185 671 244 q 592 82 631 126 q 500 12 554 38 q 378 -14 446 -14 q 276 1 319 -14 q 213 31 233 17 l 207 31 l 208 -21 l 208 -269 l 111 -269 l 111 608 l 356 608 q 494 586 435 608 q 593 525 554 564 q 651 431 632 486 q 671 313 671 376 m 568 313 q 512 473 568 417 q 356 529 456 529 l 208 529 l 208 132 q 231 114 217 124 q 267 94 246 104 q 315 78 288 85 q 378 72 343 72 q 449 88 415 72 q 510 135 483 104 q 552 210 536 165 q 568 313 568 254 z "},"Q":{"ha":907,"x_min":83,"x_max":824,"o":"m 740 -100 l 628 24 q 545 -4 590 6 q 449 -14 500 -14 q 294 13 363 -14 q 179 83 226 39 q 108 185 132 128 q 83 304 83 243 q 109 425 83 368 q 182 526 135 482 q 297 595 229 569 q 449 621 364 621 q 601 595 533 621 q 715 526 668 569 q 788 425 763 482 q 814 304 814 368 q 783 169 814 233 q 690 60 751 106 l 824 -79 l 824 -100 l 740 -100 m 711 304 q 692 397 711 354 q 638 470 672 439 q 554 519 603 501 q 449 536 506 536 q 343 519 392 536 q 260 470 294 501 q 206 397 225 439 q 186 304 186 354 q 206 212 186 254 q 260 138 225 169 q 343 89 294 107 q 449 71 392 71 q 564 93 508 71 l 472 192 l 472 206 l 557 206 l 626 129 q 689 206 667 161 q 711 304 711 251 z "},"R":{"ha":782,"x_min":111,"x_max":754,"o":"m 622 0 l 408 189 q 363 218 388 208 q 303 228 338 228 l 207 228 l 207 0 l 111 0 l 111 608 l 429 608 q 526 594 485 608 q 595 556 568 581 q 635 499 622 532 q 649 426 649 465 q 633 351 649 383 q 593 296 617 318 q 540 261 569 274 q 483 247 510 249 l 483 239 l 754 21 l 754 0 l 622 0 m 546 419 q 515 500 546 471 q 439 529 485 529 l 207 529 l 207 307 l 439 307 q 514 338 482 307 q 546 419 546 369 z "},"S":{"ha":661,"x_min":81,"x_max":586,"o":"m 586 151 q 570 86 586 117 q 523 33 554 56 q 446 -2 492 11 q 340 -15 400 -15 q 267 -9 303 -15 q 199 6 231 -3 q 140 24 167 14 q 93 43 113 35 l 81 163 l 101 163 l 128 144 q 226 92 168 117 q 340 68 283 68 q 443 90 406 68 q 481 151 481 113 q 453 201 481 181 q 383 240 425 222 q 293 274 342 257 q 203 316 244 292 q 133 374 161 340 q 106 458 106 408 q 120 519 106 490 q 163 572 135 549 q 234 608 192 594 q 332 621 276 621 q 403 615 369 621 q 465 603 438 610 q 515 588 493 596 q 549 575 536 581 l 561 453 l 540 453 l 517 471 q 440 515 489 493 q 332 538 390 538 q 269 530 293 538 q 233 510 246 522 q 215 485 219 499 q 210 458 210 471 q 222 421 210 438 q 257 391 235 404 q 311 365 279 378 q 381 336 343 351 q 451 307 414 322 q 517 271 488 292 q 567 221 547 250 q 586 151 586 192 z "},"T":{"ha":699,"x_min":28,"x_max":671,"o":"m 397 519 l 397 0 l 301 0 l 301 519 l 28 519 l 28 608 l 671 608 l 671 519 l 397 519 z "},"U":{"ha":828,"x_min":111,"x_max":717,"o":"m 717 268 q 699 158 717 210 q 646 69 682 107 q 552 8 610 31 q 414 -14 494 -14 q 276 8 333 -14 q 182 69 218 31 q 128 158 146 107 q 111 268 111 210 l 111 608 l 207 608 l 207 268 q 219 195 207 231 q 256 133 231 160 q 319 90 281 106 q 414 74 358 74 q 508 90 469 74 q 572 133 547 106 q 609 195 597 160 q 621 268 621 231 l 621 608 l 717 608 l 717 268 z "},"V":{"ha":758,"x_min":28,"x_max":731,"o":"m 419 -6 l 322 -6 l 28 588 l 28 608 l 129 608 l 367 103 l 375 103 l 629 608 l 731 608 l 731 588 l 419 -6 z "},"W":{"ha":1179,"x_min":28,"x_max":1151,"o":"m 896 -6 l 799 -6 l 594 486 l 585 486 l 379 -6 l 282 -6 l 28 588 l 28 608 l 128 608 l 326 114 l 335 114 l 540 608 l 638 608 l 843 114 l 851 114 l 1050 608 l 1151 608 l 1151 588 l 896 -6 z "},"X":{"ha":675,"x_min":28,"x_max":647,"o":"m 533 0 l 339 256 l 331 256 l 136 0 l 28 0 l 28 21 l 268 317 l 64 588 l 64 608 l 175 608 l 331 374 l 339 374 l 493 608 l 604 608 l 604 588 l 401 317 l 647 21 l 647 0 l 533 0 z "},"Y":{"ha":746,"x_min":28,"x_max":718,"o":"m 306 -278 l 206 -278 l 206 -257 l 321 -26 l 28 588 l 28 608 l 135 608 l 369 92 l 378 92 l 613 608 l 718 608 l 718 588 l 306 -278 z "},"Z":{"ha":672,"x_min":83,"x_max":617,"o":"m 83 0 l 83 67 l 461 521 l 461 529 l 92 529 l 92 543 l 110 608 l 586 608 l 586 529 l 211 88 l 211 79 l 617 79 l 617 0 l 83 0 z "},"[":{"ha":363,"x_min":111,"x_max":335,"o":"m 111 -210 l 111 818 l 335 818 l 335 740 l 207 740 l 207 -132 l 335 -132 l 335 -210 l 111 -210 z "},"\\":{"ha":347,"x_min":28,"x_max":403,"o":"m 310 -89 l 28 824 l 28 844 l 121 844 l 403 -68 l 403 -89 l 310 -89 z "},"]":{"ha":363,"x_min":28,"x_max":251,"o":"m 28 -210 l 28 -132 l 156 -132 l 156 740 l 28 740 l 28 818 l 251 818 l 251 -210 l 28 -210 z "},"^":{"ha":725,"x_min":68,"x_max":657,"o":"m 560 431 l 364 799 l 360 799 l 165 431 l 68 431 l 335 906 l 389 906 l 657 431 l 560 431 z "},"_":{"ha":711,"x_min":0,"x_max":711,"o":"m 0 -174 l 0 -104 l 711 -104 l 711 -174 l 0 -174 z "},"`":{"ha":556,"x_min":125,"x_max":400,"o":"m 331 668 l 125 839 l 125 861 l 258 861 l 400 689 l 400 668 l 331 668 z "},"a":{"ha":736,"x_min":42,"x_max":708,"o":"m 603 0 l 531 147 l 99 -43 l 42 28 l 339 544 l 300 621 l 300 629 l 406 629 l 708 8 l 708 0 l 603 0 m 386 449 l 378 449 l 171 78 l 176 72 l 489 233 l 386 449 z "},"b":{"ha":744,"x_min":111,"x_max":689,"o":"m 689 175 q 679 119 689 150 q 645 63 669 89 q 581 18 621 36 q 483 0 542 0 l 111 0 l 111 608 l 453 608 q 524 600 490 608 q 582 574 557 592 q 622 526 607 556 q 636 457 636 497 q 609 378 636 408 q 556 342 582 349 l 556 333 q 650 283 611 324 q 689 175 689 243 m 533 453 q 508 511 533 493 q 443 529 483 529 l 207 529 l 207 364 l 443 364 q 507 388 481 364 q 533 453 533 413 m 586 185 q 556 257 586 229 q 479 285 525 285 l 207 285 l 207 79 l 479 79 q 558 112 531 79 q 586 185 586 144 z "},"c":{"ha":769,"x_min":83,"x_max":686,"o":"m 686 25 q 559 -8 615 -1 q 450 -14 503 -14 q 310 10 376 -14 q 193 75 243 33 q 113 175 143 117 q 83 303 83 233 q 113 431 83 372 q 193 531 143 489 q 310 597 243 574 q 450 621 376 621 q 559 615 503 621 q 686 582 615 608 l 686 474 l 665 474 q 557 522 607 504 q 450 540 507 540 q 350 524 397 540 q 267 478 303 508 q 210 403 232 447 q 189 303 189 358 q 210 202 189 246 q 267 128 232 158 q 350 83 303 99 q 450 67 397 67 q 557 85 507 67 q 665 133 607 103 l 686 133 l 686 25 z "},"d":{"ha":774,"x_min":83,"x_max":663,"o":"m 431 0 q 287 24 351 0 q 177 88 222 47 q 108 183 132 128 q 83 304 83 239 q 106 435 83 376 q 169 536 129 494 q 265 600 210 578 q 385 622 319 622 q 493 607 447 622 q 560 578 539 592 l 568 578 l 565 636 l 565 878 l 663 878 l 663 0 l 431 0 m 565 478 q 498 516 542 496 q 385 536 454 536 q 311 522 347 536 q 247 478 275 507 q 203 406 219 449 q 186 304 186 363 q 203 211 186 253 q 253 140 221 169 q 331 95 286 111 q 431 79 376 79 l 565 79 l 565 478 z "},"e":{"ha":771,"x_min":83,"x_max":688,"o":"m 688 25 q 558 -8 617 -1 q 447 -14 500 -14 q 308 10 374 -14 q 192 78 242 35 q 113 180 142 121 q 83 308 83 239 q 113 435 83 378 q 192 534 142 493 q 308 598 242 575 q 447 621 374 621 q 558 615 500 621 q 686 582 615 608 l 686 474 l 665 474 q 555 523 606 504 q 447 542 504 542 q 274 489 343 542 q 189 351 204 436 l 622 351 l 622 269 l 190 269 q 221 190 199 228 q 276 125 243 153 q 353 81 310 97 q 447 65 397 65 q 556 84 504 65 q 667 133 607 103 l 688 133 l 688 25 z "},"f":{"ha":653,"x_min":100,"x_max":603,"o":"m 582 472 q 547 491 567 481 q 501 510 526 501 q 444 526 475 519 q 375 533 413 533 q 240 484 283 533 q 196 349 196 435 l 196 129 l 519 129 l 519 42 l 196 42 l 196 -278 l 100 -278 l 100 349 q 103 403 100 378 q 113 453 106 429 q 208 581 139 540 q 375 621 278 621 q 451 616 414 621 q 517 605 488 611 q 569 591 547 599 q 603 579 592 583 l 603 472 l 582 472 z "},"g":{"ha":803,"x_min":83,"x_max":692,"o":"m 596 -111 l 596 -33 l 599 4 l 590 4 q 537 -8 575 -3 q 446 -14 499 -14 q 306 10 372 -14 q 191 75 240 33 q 113 175 142 117 q 83 303 83 233 q 113 431 83 372 q 193 531 143 489 q 310 597 243 574 q 450 621 376 621 q 559 615 503 621 q 686 582 615 608 l 686 474 l 665 474 q 557 522 607 504 q 450 540 507 540 q 350 524 397 540 q 267 478 303 508 q 210 403 232 447 q 189 303 189 358 q 210 202 189 246 q 266 128 231 158 q 348 83 301 99 q 446 67 394 67 q 535 79 496 67 q 596 103 575 92 l 596 356 l 692 356 l 692 -111 l 596 -111 z "},"h":{"ha":831,"x_min":111,"x_max":747,"o":"m 747 321 q 731 206 747 260 q 691 111 714 153 q 644 41 668 69 q 606 0 619 13 l 488 0 l 488 10 q 539 63 511 32 q 591 134 567 94 q 631 221 615 174 q 647 321 647 268 q 635 397 647 358 q 599 465 624 435 q 535 515 574 496 q 440 533 496 533 q 356 519 394 533 q 288 485 318 506 q 238 442 258 464 q 207 403 217 419 l 207 0 l 111 0 l 111 878 l 207 878 l 207 590 l 203 513 l 211 513 q 244 545 222 526 q 294 581 265 564 q 361 609 324 597 q 440 621 399 621 q 579 596 521 621 q 675 529 638 571 q 730 433 713 488 q 747 321 747 379 z "},"i":{"ha":318,"x_min":111,"x_max":207,"o":"m 111 0 l 111 608 l 207 608 l 207 0 l 111 0 z "},"j":{"ha":318,"x_min":49,"x_max":207,"o":"m 207 -97 q 180 -196 207 -158 q 93 -251 153 -233 l 79 -256 l 49 -199 l 63 -192 q 99 -153 86 -181 q 111 -97 111 -126 l 111 608 l 207 608 l 207 -97 z "},"k":{"ha":706,"x_min":111,"x_max":667,"o":"m 546 0 l 214 272 l 206 272 l 206 0 l 111 0 l 111 878 l 206 878 l 206 358 l 214 358 l 538 608 l 658 608 l 658 588 l 300 321 l 300 313 l 667 21 l 667 0 l 546 0 z "},"l":{"ha":593,"x_min":111,"x_max":593,"o":"m 111 0 l 111 608 l 207 608 l 207 86 l 593 86 l 593 0 l 111 0 z "},"m":{"ha":1239,"x_min":83,"x_max":1156,"o":"m 1156 310 q 1144 222 1156 267 q 1113 135 1132 176 q 1071 58 1094 93 q 1024 0 1047 22 l 906 0 l 906 21 q 953 62 926 35 q 1004 126 981 89 q 1044 210 1028 164 q 1060 310 1060 257 q 1006 476 1060 414 q 851 539 951 539 q 762 519 797 539 q 705 469 726 500 q 675 399 683 438 q 667 324 667 361 l 667 0 l 572 0 l 572 324 q 567 390 572 353 q 542 460 561 428 q 485 516 522 493 q 388 539 449 539 q 233 476 288 539 q 179 310 179 414 q 195 210 179 257 q 235 126 211 164 q 285 62 258 89 q 333 21 313 35 l 333 0 l 215 0 q 168 58 192 22 q 126 135 144 93 q 95 222 107 176 q 83 310 83 267 q 164 538 83 456 q 388 621 244 621 q 475 610 438 621 q 540 581 513 599 q 586 542 568 563 q 615 503 604 521 l 624 503 q 652 542 633 521 q 699 581 671 563 q 764 610 726 599 q 851 621 801 621 q 1075 538 994 621 q 1156 310 1156 456 z "},"n":{"ha":857,"x_min":111,"x_max":746,"o":"m 671 0 l 208 469 l 200 469 l 200 0 l 111 0 l 111 608 l 192 608 l 649 144 l 657 144 l 657 608 l 746 608 l 746 0 l 671 0 z "},"o":{"ha":922,"x_min":83,"x_max":839,"o":"m 839 304 q 813 185 839 243 q 737 83 786 128 q 617 13 688 39 q 461 -14 547 -14 q 305 13 375 -14 q 185 83 235 39 q 110 185 136 128 q 83 304 83 243 q 110 425 83 368 q 188 526 138 482 q 307 595 238 569 q 461 621 376 621 q 615 595 546 621 q 735 526 685 569 q 812 425 785 482 q 839 304 839 368 m 736 304 q 715 397 736 354 q 656 470 693 439 q 568 519 618 501 q 461 536 518 536 q 354 519 404 536 q 267 470 304 501 q 208 397 229 439 q 186 304 186 354 q 208 212 186 254 q 267 138 229 169 q 354 89 304 107 q 461 71 404 71 q 568 89 518 71 q 656 138 618 107 q 715 212 693 169 q 736 304 736 254 z "},"p":{"ha":754,"x_min":111,"x_max":671,"o":"m 671 313 q 651 185 671 244 q 592 82 631 126 q 500 12 554 38 q 378 -14 446 -14 q 276 1 319 -14 q 213 31 233 17 l 207 31 l 208 -21 l 208 -269 l 111 -269 l 111 608 l 356 608 q 494 586 435 608 q 593 525 554 564 q 651 431 632 486 q 671 313 671 376 m 568 313 q 512 473 568 417 q 356 529 456 529 l 208 529 l 208 132 q 231 114 217 124 q 267 94 246 104 q 315 78 288 85 q 378 72 343 72 q 449 88 415 72 q 510 135 483 104 q 552 210 536 165 q 568 313 568 254 z "},"q":{"ha":754,"x_min":83,"x_max":643,"o":"m 546 -269 l 546 -21 l 547 31 l 542 31 q 478 1 521 17 q 376 -14 436 -14 q 254 9 308 -14 q 162 73 200 32 q 103 171 124 114 q 83 296 83 228 q 103 417 83 360 q 161 517 122 474 q 260 584 200 560 q 399 608 319 608 l 643 608 l 643 -269 l 546 -269 m 546 529 l 399 529 q 309 512 349 529 q 242 464 269 494 q 201 390 215 433 q 186 296 186 347 q 202 196 186 238 q 244 126 218 154 q 305 85 271 99 q 376 72 339 72 q 439 78 411 72 q 488 94 467 85 q 523 113 508 103 q 546 131 538 122 l 546 529 z "},"r":{"ha":782,"x_min":111,"x_max":754,"o":"m 622 0 l 408 189 q 363 218 388 208 q 303 228 338 228 l 207 228 l 207 0 l 111 0 l 111 608 l 429 608 q 526 594 485 608 q 595 556 568 581 q 635 499 622 532 q 649 426 649 465 q 633 351 649 383 q 593 296 617 318 q 540 261 569 274 q 483 247 510 249 l 483 239 l 754 21 l 754 0 l 622 0 m 546 419 q 515 500 546 471 q 439 529 485 529 l 207 529 l 207 307 l 439 307 q 514 338 482 307 q 546 419 546 369 z "},"s":{"ha":661,"x_min":81,"x_max":586,"o":"m 586 151 q 570 86 586 117 q 523 33 554 56 q 446 -2 492 11 q 340 -15 400 -15 q 267 -9 303 -15 q 199 6 231 -3 q 140 24 167 14 q 93 43 113 35 l 81 163 l 101 163 l 128 144 q 226 92 168 117 q 340 68 283 68 q 443 90 406 68 q 481 151 481 113 q 453 201 481 181 q 383 240 425 222 q 293 274 342 257 q 203 316 244 292 q 133 374 161 340 q 106 458 106 408 q 120 519 106 490 q 163 572 135 549 q 234 608 192 594 q 332 621 276 621 q 403 615 369 621 q 465 603 438 610 q 515 588 493 596 q 549 575 536 581 l 561 453 l 540 453 l 517 471 q 440 515 489 493 q 332 538 390 538 q 269 530 293 538 q 233 510 246 522 q 215 485 219 499 q 210 458 210 471 q 222 421 210 438 q 257 391 235 404 q 311 365 279 378 q 381 336 343 351 q 451 307 414 322 q 517 271 488 292 q 567 221 547 250 q 586 151 586 192 z "},"t":{"ha":699,"x_min":28,"x_max":671,"o":"m 397 519 l 397 0 l 301 0 l 301 519 l 28 519 l 28 608 l 671 608 l 671 519 l 397 519 z "},"u":{"ha":831,"x_min":83,"x_max":719,"o":"m 626 0 l 626 58 l 629 94 l 624 94 q 588 59 610 78 q 535 24 565 40 q 469 -3 506 8 q 390 -14 432 -14 q 251 11 310 -14 q 156 78 193 36 q 101 174 118 119 q 83 286 83 228 q 100 392 83 340 q 140 488 117 444 q 187 564 163 532 q 225 608 211 596 l 343 608 l 343 600 q 292 546 319 578 q 240 474 264 514 q 199 388 215 435 q 183 286 183 340 q 195 210 183 249 q 232 142 207 172 q 296 92 257 111 q 390 74 335 74 q 471 88 433 74 q 539 123 508 103 q 591 165 569 143 q 624 204 613 188 l 624 608 l 719 608 l 719 0 l 626 0 z "},"v":{"ha":800,"x_min":28,"x_max":772,"o":"m 440 -6 l 343 -6 l 28 588 l 28 608 l 129 608 l 388 103 l 396 103 l 671 608 l 772 608 l 772 588 l 440 -6 z "},"w":{"ha":1179,"x_min":28,"x_max":1151,"o":"m 896 -6 l 799 -6 l 594 486 l 585 486 l 379 -6 l 282 -6 l 28 588 l 28 608 l 128 608 l 326 114 l 335 114 l 540 608 l 638 608 l 843 114 l 851 114 l 1050 608 l 1151 608 l 1151 588 l 896 -6 z "},"x":{"ha":675,"x_min":28,"x_max":647,"o":"m 533 0 l 339 256 l 331 256 l 136 0 l 28 0 l 28 21 l 268 317 l 64 588 l 64 608 l 175 608 l 331 374 l 339 374 l 493 608 l 604 608 l 604 588 l 401 317 l 647 21 l 647 0 l 533 0 z "},"y":{"ha":746,"x_min":28,"x_max":718,"o":"m 306 -278 l 206 -278 l 206 -257 l 321 -26 l 28 588 l 28 608 l 135 608 l 369 92 l 378 92 l 613 608 l 718 608 l 718 588 l 306 -278 z "},"z":{"ha":672,"x_min":83,"x_max":617,"o":"m 83 0 l 83 67 l 461 521 l 461 529 l 92 529 l 92 543 l 110 608 l 586 608 l 586 529 l 211 88 l 211 79 l 617 79 l 617 0 l 83 0 z "},"{":{"ha":417,"x_min":42,"x_max":356,"o":"m 247 -210 q 211 -208 228 -210 q 182 -196 194 -206 q 162 -168 169 -186 q 154 -117 154 -150 l 154 114 q 135 221 154 178 q 71 264 115 264 l 42 264 l 42 346 l 71 346 q 135 389 115 346 q 154 496 154 432 l 154 726 q 162 778 154 760 q 182 805 169 796 q 211 816 194 814 q 247 818 228 818 l 356 818 l 356 735 l 249 735 l 249 468 q 223 365 249 404 q 147 303 197 326 q 223 242 197 279 q 249 142 249 206 l 249 -126 l 356 -126 l 356 -210 l 247 -210 z "},"|":{"ha":236,"x_min":78,"x_max":158,"o":"m 78 -326 l 78 1063 l 158 1063 l 158 -326 l 78 -326 z "},"}":{"ha":417,"x_min":61,"x_max":375,"o":"m 346 264 q 282 221 301 264 q 263 114 263 178 l 263 -117 q 255 -168 263 -150 q 235 -196 247 -186 q 206 -208 222 -206 q 169 -210 189 -210 l 61 -210 l 61 -126 l 168 -126 l 168 142 q 194 242 168 206 q 269 303 219 279 q 194 365 219 326 q 168 468 168 404 l 168 735 l 61 735 l 61 818 l 169 818 q 206 816 189 818 q 235 805 222 814 q 255 778 247 796 q 263 726 263 760 l 263 496 q 282 389 263 432 q 346 346 301 346 l 375 346 l 375 264 l 346 264 z "},"~":{"ha":725,"x_min":68,"x_max":656,"o":"m 656 350 q 587 272 626 304 q 490 240 547 240 q 417 253 453 240 q 351 285 382 265 q 295 315 324 301 q 236 328 267 328 q 172 303 203 328 q 121 240 142 278 l 68 297 q 135 374 96 342 q 236 407 175 407 q 307 395 274 407 q 371 364 340 383 q 431 333 403 344 q 488 321 458 321 q 551 344 521 321 q 603 407 581 368 l 656 350 z "}," ":{"ha":361,"x_min":0,"x_max":0,"o":""},"¡":{"ha":311,"x_min":83,"x_max":228,"o":"m 228 536 q 207 485 228 506 q 156 464 186 464 q 104 485 125 464 q 83 536 83 506 q 104 588 83 567 q 156 608 125 608 q 207 588 186 608 q 228 536 228 567 m 108 0 l 108 285 l 122 411 l 190 411 l 204 285 l 204 0 l 108 0 z "},"¢":{"ha":678,"x_min":83,"x_max":606,"o":"m 606 57 q 501 30 547 36 q 410 24 454 24 l 410 -115 l 339 -115 l 339 29 q 240 61 286 38 q 158 119 193 85 q 103 199 124 154 q 83 297 83 244 q 103 395 83 350 q 158 475 124 440 q 240 533 193 510 q 339 567 286 557 l 339 701 l 410 701 l 410 572 q 501 566 454 572 q 606 538 547 560 l 606 438 l 589 438 q 498 478 540 463 q 410 494 456 493 l 410 100 q 498 117 456 101 q 589 158 540 132 l 606 158 l 606 57 m 339 488 q 224 424 269 471 q 179 297 179 376 q 224 171 179 218 q 339 107 269 124 l 339 488 z "},"£":{"ha":668,"x_min":111,"x_max":557,"o":"m 536 476 q 513 497 528 485 q 481 519 499 508 q 442 536 464 529 q 397 543 421 543 q 351 535 369 543 q 320 513 332 526 q 303 483 308 499 q 297 450 297 467 l 297 367 l 293 333 l 325 336 l 431 336 l 431 267 l 325 267 l 293 269 l 297 240 l 297 165 q 288 110 297 135 q 268 75 279 86 l 276 75 l 310 79 l 519 79 l 519 0 l 154 0 l 154 58 q 191 106 178 76 q 204 165 204 136 l 204 240 l 208 269 l 179 267 l 111 267 l 111 336 l 179 336 l 208 333 l 204 367 l 204 461 q 215 518 204 489 q 250 570 226 547 q 310 608 274 593 q 397 622 346 622 q 488 611 444 622 q 557 589 532 600 l 557 476 l 536 476 z "},"¤":{"ha":769,"x_min":83,"x_max":686,"o":"m 686 240 q 663 217 675 229 q 640 193 651 206 q 594 240 617 217 q 549 286 572 263 q 474 244 515 258 q 385 229 432 229 q 306 241 350 229 q 221 286 261 253 q 175 240 197 263 q 129 193 153 217 q 107 217 118 206 q 83 240 96 229 q 131 285 107 263 q 178 329 154 307 q 137 403 153 363 q 121 492 121 444 q 136 581 121 539 q 178 654 151 622 q 131 699 154 678 q 83 744 107 721 q 107 767 96 756 q 129 792 118 779 q 175 745 153 768 q 221 699 197 722 q 307 743 264 731 q 385 756 350 756 q 469 742 424 756 q 547 699 514 728 l 640 792 q 663 767 651 779 q 686 744 675 756 q 640 699 663 721 q 593 654 617 678 q 635 576 621 618 q 649 492 649 533 q 634 404 649 444 q 593 329 619 364 q 640 285 617 307 q 686 240 663 263 m 583 493 q 567 574 583 538 q 522 636 550 610 q 459 676 494 663 q 386 690 424 690 q 306 674 343 690 q 243 631 269 658 q 201 568 217 604 q 186 493 186 532 q 202 416 186 453 q 245 352 218 379 q 308 309 272 325 q 385 293 344 293 q 463 309 426 293 q 526 352 499 325 q 568 416 553 379 q 583 493 583 453 z "},"¥":{"ha":642,"x_min":83,"x_max":558,"o":"m 397 315 l 531 315 l 531 256 l 368 256 l 368 196 l 531 196 l 531 136 l 368 136 l 368 0 l 274 0 l 274 136 l 107 136 l 107 196 l 274 196 l 274 256 l 107 256 l 107 315 l 244 315 l 83 588 l 83 608 l 181 608 l 318 346 l 326 346 l 461 608 l 558 608 l 558 588 l 397 315 z "},"¦":{"ha":236,"x_min":78,"x_max":158,"o":"m 78 476 l 78 1063 l 158 1063 l 158 476 l 78 476 m 78 -326 l 78 264 l 158 264 l 158 -326 l 78 -326 z "},"§":{"ha":692,"x_min":83,"x_max":604,"o":"m 604 -143 q 587 -203 604 -175 q 536 -252 569 -231 q 454 -286 503 -274 q 343 -299 406 -299 q 201 -283 268 -299 q 96 -250 135 -267 l 83 -150 l 101 -150 q 159 -173 128 -161 q 222 -195 190 -185 q 285 -212 254 -206 q 343 -219 315 -219 q 404 -214 375 -219 q 456 -198 433 -208 q 491 -174 478 -187 q 504 -143 504 -160 q 488 -108 504 -125 q 447 -75 472 -92 q 388 -42 421 -58 q 319 -10 354 -26 q 240 26 279 8 q 169 65 200 44 q 119 113 138 86 q 100 174 100 139 q 137 260 100 225 q 226 314 174 294 q 138 375 174 342 q 101 457 101 408 q 124 529 101 499 q 183 580 147 560 q 265 610 219 600 q 357 621 311 621 q 499 603 443 621 q 579 575 554 586 l 592 467 l 575 467 q 537 488 558 475 q 488 513 515 501 q 427 533 460 525 q 357 542 394 542 q 284 534 314 542 q 235 514 254 526 q 208 487 217 501 q 199 458 199 472 q 230 413 199 436 q 301 372 261 390 q 365 344 328 361 q 438 311 403 328 q 501 278 471 296 q 553 239 531 260 q 590 194 576 218 q 604 140 604 169 q 482 6 604 58 q 569 -58 533 -22 q 604 -143 604 -94 m 503 140 q 490 171 503 156 q 457 201 478 186 q 408 229 436 215 q 350 257 381 243 q 281 249 310 257 q 235 228 253 240 q 208 202 217 217 q 200 175 200 188 q 230 130 200 153 q 300 89 260 107 q 325 78 311 83 q 354 65 339 72 q 412 72 385 67 q 459 88 439 78 q 491 110 479 97 q 503 140 503 124 z "},"¨":{"ha":556,"x_min":94,"x_max":464,"o":"m 464 744 q 444 697 464 717 q 397 678 425 678 q 350 697 369 678 q 331 744 331 717 q 350 792 331 772 q 397 811 369 811 q 444 792 425 811 q 464 744 464 772 m 228 744 q 208 697 228 717 q 161 678 189 678 q 114 697 133 678 q 94 744 94 717 q 114 792 94 772 q 161 811 133 811 q 208 792 189 811 q 228 744 228 772 z "},"©":{"ha":975,"x_min":56,"x_max":919,"o":"m 919 418 q 885 251 919 329 q 792 113 851 172 q 655 20 733 54 q 488 -14 576 -14 q 320 20 399 -14 q 183 113 242 54 q 90 251 124 172 q 56 418 56 329 q 90 585 56 507 q 183 723 124 664 q 320 816 242 782 q 488 850 399 850 q 655 816 576 850 q 792 723 733 782 q 885 585 851 664 q 919 418 919 507 m 839 415 q 812 553 839 489 q 737 666 785 618 q 625 742 689 714 q 488 769 561 769 q 350 742 414 769 q 238 666 286 714 q 163 553 190 618 q 136 415 136 489 q 163 278 136 342 q 238 167 190 214 q 350 94 286 121 q 488 67 414 67 q 625 94 561 67 q 737 167 689 121 q 812 278 785 214 q 839 415 839 342 m 658 228 q 573 206 610 210 q 504 201 536 201 q 399 218 446 201 q 322 264 353 235 q 274 333 290 293 q 257 419 257 374 q 275 508 257 468 q 326 578 293 549 q 405 623 360 607 q 504 639 450 639 q 573 634 536 639 q 658 611 610 629 l 658 532 l 639 532 q 569 563 603 551 q 504 574 536 574 q 385 533 432 574 q 339 419 339 492 q 385 311 339 353 q 504 269 432 269 q 569 279 536 269 q 639 308 603 289 l 658 308 l 658 228 z "},"ª":{"ha":492,"x_min":56,"x_max":436,"o":"m 364 282 l 326 354 l 96 258 l 56 304 l 217 571 l 197 607 l 197 622 l 269 622 l 436 297 l 436 282 l 364 282 m 251 508 l 247 508 l 144 343 l 147 339 l 304 410 l 251 508 z "},"«":{"ha":533,"x_min":28,"x_max":506,"o":"m 408 89 l 217 308 l 408 528 l 506 528 l 506 507 l 306 308 l 506 110 l 506 89 l 408 89 m 219 89 l 28 308 l 219 528 l 317 528 l 317 507 l 117 308 l 317 110 l 317 89 l 219 89 z "},"¬":{"ha":725,"x_min":89,"x_max":636,"o":"m 556 129 l 556 407 l 89 407 l 89 488 l 636 488 l 636 129 l 556 129 z "},"­":{"ha":628,"x_min":111,"x_max":517,"o":"m 111 256 l 111 351 l 517 351 l 517 256 l 111 256 z "},"®":{"ha":806,"x_min":83,"x_max":722,"o":"m 722 558 q 697 434 722 492 q 628 333 672 376 q 527 264 585 289 q 403 239 469 239 q 278 264 336 239 q 177 333 221 289 q 108 434 133 376 q 83 558 83 492 q 108 683 83 625 q 177 784 133 740 q 278 853 221 828 q 403 878 336 878 q 527 853 469 878 q 628 784 585 828 q 697 683 672 740 q 722 558 722 625 m 649 557 q 630 653 649 608 q 578 732 611 699 q 499 785 544 765 q 403 804 454 804 q 306 785 351 804 q 228 732 261 765 q 176 653 194 699 q 157 557 157 608 q 176 461 157 506 q 228 383 194 417 q 306 331 261 350 q 403 313 351 313 q 499 331 454 313 q 578 383 544 350 q 630 461 611 417 q 649 557 649 506 m 556 406 l 499 406 l 418 503 q 397 514 411 510 q 369 518 382 518 l 336 518 l 336 406 l 279 406 l 279 717 l 432 717 q 519 690 490 717 q 549 622 549 664 q 522 557 549 581 q 468 528 496 533 l 568 415 l 556 406 m 485 617 q 471 652 485 640 q 436 664 457 664 l 339 664 l 339 567 l 436 567 q 470 581 456 567 q 485 617 485 594 z "},"¯":{"ha":556,"x_min":81,"x_max":474,"o":"m 81 669 l 81 757 l 474 757 l 474 669 l 81 669 z "},"°":{"ha":542,"x_min":83,"x_max":458,"o":"m 458 436 q 444 363 458 397 q 403 303 429 329 q 344 263 378 278 q 271 249 310 249 q 198 263 232 249 q 138 303 164 278 q 98 363 113 329 q 83 436 83 397 q 98 509 83 475 q 138 569 113 543 q 198 609 164 594 q 271 624 232 624 q 344 609 310 624 q 403 569 378 594 q 444 509 429 543 q 458 436 458 475 m 386 436 q 353 517 386 485 q 271 550 319 550 q 190 517 222 550 q 157 436 157 485 q 190 354 157 388 q 271 321 222 321 q 353 354 319 321 q 386 436 386 388 z "},"±":{"ha":725,"x_min":89,"x_max":636,"o":"m 89 -83 l 89 -3 l 636 -3 l 636 -83 l 89 -83 m 403 369 l 403 90 l 322 90 l 322 369 l 89 369 l 89 450 l 322 450 l 322 729 l 403 729 l 403 450 l 636 450 l 636 369 l 403 369 z "},"²":{"ha":436,"x_min":83,"x_max":353,"o":"m 83 289 l 83 353 q 130 383 100 365 q 190 422 160 401 q 243 465 221 443 q 265 510 265 488 q 253 545 265 529 q 208 561 240 561 q 154 545 182 561 q 107 506 126 529 l 86 506 l 86 585 q 151 612 118 604 q 208 619 185 619 q 305 594 267 619 q 343 510 343 568 q 327 463 343 485 q 288 422 311 440 q 240 387 265 403 q 193 357 214 371 l 193 349 l 235 354 l 353 354 l 353 289 l 83 289 z "},"³":{"ha":393,"x_min":83,"x_max":310,"o":"m 310 385 q 272 316 310 343 q 185 289 235 289 q 136 294 163 289 q 83 310 110 299 l 83 374 l 104 374 q 135 350 111 364 q 185 336 160 336 q 228 350 214 336 q 242 385 242 364 q 227 413 242 394 q 183 432 213 432 l 163 432 l 163 475 l 183 475 q 225 493 213 475 q 238 531 238 511 q 225 556 238 543 q 188 568 213 568 q 140 555 164 568 q 108 535 117 542 l 88 535 l 88 599 q 140 615 114 610 q 188 619 165 619 q 272 596 236 619 q 307 531 307 572 q 294 490 307 508 q 260 464 281 472 l 260 456 q 294 426 279 447 q 310 385 310 406 z "},"´":{"ha":556,"x_min":142,"x_max":417,"o":"m 211 669 l 142 669 l 142 697 l 283 863 l 417 863 l 417 835 l 211 669 z "},"µ":{"ha":792,"x_min":111,"x_max":708,"o":"m 631 0 q 630 67 631 33 q 629 135 629 100 l 628 135 q 536 25 592 64 q 393 -15 481 -14 q 266 16 314 -15 q 192 92 218 47 q 189 90 189 92 l 189 -265 l 111 -265 l 111 694 l 189 694 l 189 325 q 242 126 189 201 q 403 51 294 51 q 498 74 456 51 q 569 133 540 96 q 614 217 599 169 q 629 314 629 264 l 629 694 l 708 694 l 708 0 l 631 0 z "},"¶":{"ha":610,"x_min":83,"x_max":526,"o":"m 458 721 l 458 -58 l 396 -58 l 396 721 l 315 721 l 315 -58 l 253 -58 l 253 429 q 187 441 218 431 q 133 472 156 451 q 97 524 110 493 q 83 600 83 556 q 132 728 83 685 q 251 771 181 771 l 526 771 l 526 721 l 458 721 z "},"·":{"ha":294,"x_min":75,"x_max":219,"o":"m 219 311 q 199 260 219 281 q 147 239 178 239 q 96 260 117 239 q 75 311 75 281 q 96 363 75 342 q 147 383 117 383 q 199 363 178 383 q 219 311 219 342 z "},"¸":{"ha":556,"x_min":161,"x_max":379,"o":"m 379 -121 q 344 -203 379 -169 q 239 -237 308 -237 q 194 -234 218 -237 q 161 -226 171 -231 l 161 -150 l 190 -150 q 210 -168 197 -158 q 239 -178 224 -178 q 285 -160 269 -178 q 300 -121 300 -142 q 283 -83 300 -97 q 233 -68 265 -68 q 219 -68 226 -68 q 206 -69 211 -68 l 235 11 l 314 11 l 304 -22 q 359 -60 339 -32 q 379 -121 379 -89 z "},"¹":{"ha":303,"x_min":69,"x_max":206,"o":"m 133 294 l 133 543 l 125 543 l 89 521 l 69 521 l 69 575 l 150 619 l 206 619 l 206 294 l 133 294 z "},"º":{"ha":538,"x_min":56,"x_max":482,"o":"m 482 450 q 467 385 482 417 q 424 331 451 354 q 356 293 396 307 q 268 279 317 279 q 181 293 219 279 q 114 331 142 307 q 71 385 86 354 q 56 450 56 417 q 71 516 56 485 q 115 571 86 547 q 182 608 143 594 q 268 622 221 622 q 354 608 315 622 q 422 571 393 594 q 466 516 450 547 q 482 450 482 485 m 408 450 q 368 529 408 497 q 268 561 328 561 q 169 529 208 561 q 129 450 129 497 q 169 372 129 404 q 268 340 208 340 q 368 372 328 340 q 408 450 408 404 z "},"»":{"ha":533,"x_min":28,"x_max":506,"o":"m 314 89 l 217 89 l 217 110 l 417 308 l 217 507 l 217 528 l 314 528 l 506 308 l 314 89 m 125 89 l 28 89 l 28 110 l 228 308 l 28 507 l 28 528 l 125 528 l 317 308 l 125 89 z "},"¼":{"ha":725,"x_min":72,"x_max":667,"o":"m 607 74 l 607 0 l 535 0 l 535 74 l 357 74 l 357 118 l 524 374 l 569 346 l 438 131 l 535 131 l 535 174 l 567 244 l 607 244 l 607 131 l 667 131 l 667 74 l 607 74 m 138 -21 l 74 -21 l 74 -3 l 507 636 l 568 636 l 568 611 l 138 -21 m 136 294 l 136 543 l 128 543 l 92 521 l 72 521 l 72 575 l 153 619 l 208 619 l 208 294 l 136 294 z "},"½":{"ha":768,"x_min":72,"x_max":679,"o":"m 410 0 l 410 64 q 456 94 426 76 q 517 133 486 113 q 569 176 547 154 q 592 221 592 199 q 579 256 592 240 q 535 272 567 272 q 481 256 508 272 q 433 217 453 240 l 413 217 l 413 296 q 478 323 444 315 q 535 331 511 331 q 631 305 593 331 q 669 221 669 279 q 653 174 669 196 q 615 133 638 151 q 566 98 592 114 q 519 68 540 82 l 519 60 l 561 65 l 679 65 l 679 0 l 410 0 m 138 -21 l 74 -21 l 74 -3 l 507 636 l 568 636 l 568 611 l 138 -21 m 136 294 l 136 543 l 128 543 l 92 521 l 72 521 l 72 575 l 153 619 l 208 619 l 208 294 l 136 294 z "},"¾":{"ha":804,"x_min":86,"x_max":721,"o":"m 661 74 l 661 0 l 589 0 l 589 74 l 411 74 l 411 118 l 579 374 l 625 346 l 493 131 l 589 131 l 589 174 l 621 244 l 661 244 l 661 131 l 721 131 l 721 74 l 661 74 m 192 -21 l 128 -21 l 128 -3 l 561 636 l 622 636 l 622 611 l 192 -21 m 313 385 q 275 316 313 343 q 188 289 238 289 q 139 294 165 289 q 86 310 113 299 l 86 374 l 107 374 q 138 350 114 364 q 188 336 163 336 q 231 350 217 336 q 244 385 244 364 q 230 413 244 394 q 186 432 215 432 l 165 432 l 165 475 l 186 475 q 228 493 215 475 q 240 531 240 511 q 228 556 240 543 q 190 568 215 568 q 143 555 167 568 q 111 535 119 542 l 90 535 l 90 599 q 142 615 117 610 q 190 619 168 619 q 274 596 239 619 q 310 531 310 572 q 297 490 310 508 q 263 464 283 472 l 263 456 q 297 426 282 447 q 313 385 313 406 z "},"¿":{"ha":506,"x_min":83,"x_max":422,"o":"m 372 535 q 351 483 372 504 q 300 463 331 463 q 249 483 269 463 q 228 535 228 504 q 249 586 228 565 q 300 607 269 607 q 351 586 331 607 q 372 535 372 565 m 422 26 q 351 -2 390 10 q 263 -14 313 -14 q 197 -8 229 -14 q 139 15 164 -1 q 99 58 114 31 q 83 129 83 86 q 91 177 83 157 q 111 212 99 197 q 140 238 124 226 q 172 263 156 250 q 202 285 188 274 q 231 308 217 296 q 256 353 256 331 l 269 410 l 326 410 l 335 351 q 310 276 335 306 q 255 223 285 246 q 200 179 225 200 q 175 129 175 158 q 200 74 175 92 q 263 57 225 57 q 338 79 307 57 q 397 132 369 101 l 422 132 l 422 26 z "},"À":{"ha":731,"x_min":28,"x_max":703,"o":"m 414 668 l 208 839 l 208 861 l 342 861 l 483 689 l 483 668 l 414 668 m 599 0 l 539 122 l 192 122 l 132 0 l 28 0 l 28 8 l 317 608 l 415 608 l 703 8 l 703 0 l 599 0 m 372 500 l 364 500 l 228 206 l 503 206 l 372 500 z "},"Á":{"ha":731,"x_min":28,"x_max":703,"o":"m 350 669 l 281 669 l 281 697 l 422 863 l 556 863 l 556 835 l 350 669 m 599 0 l 539 122 l 192 122 l 132 0 l 28 0 l 28 8 l 317 608 l 415 608 l 703 8 l 703 0 l 599 0 m 372 500 l 364 500 l 228 206 l 503 206 l 372 500 z "},"Â":{"ha":731,"x_min":28,"x_max":703,"o":"m 479 671 l 369 794 l 361 794 l 251 671 l 172 671 l 172 692 l 322 865 l 408 865 l 558 692 l 558 671 l 479 671 m 599 0 l 539 122 l 192 122 l 132 0 l 28 0 l 28 8 l 317 608 l 415 608 l 703 8 l 703 0 l 599 0 m 372 500 l 364 500 l 228 206 l 503 206 l 372 500 z "},"Ã":{"ha":731,"x_min":28,"x_max":703,"o":"m 575 740 q 551 717 563 729 q 528 695 540 706 q 500 678 515 685 q 463 671 485 671 q 411 683 435 671 q 368 706 388 694 q 322 733 339 724 q 274 742 304 742 q 226 722 246 742 q 182 669 206 701 l 161 669 l 161 753 q 185 776 174 764 q 208 798 196 788 q 236 815 221 808 q 274 822 251 822 q 325 810 301 822 q 368 788 349 799 q 415 760 397 769 q 463 751 432 751 q 510 772 490 751 q 554 824 531 792 l 575 824 l 575 740 m 599 0 l 539 122 l 192 122 l 132 0 l 28 0 l 28 8 l 317 608 l 415 608 l 703 8 l 703 0 l 599 0 m 372 500 l 364 500 l 228 206 l 503 206 l 372 500 z "},"Ä":{"ha":731,"x_min":28,"x_max":703,"o":"m 550 744 q 531 697 550 717 q 483 678 511 678 q 436 697 456 678 q 417 744 417 717 q 436 792 417 772 q 483 811 456 811 q 531 792 511 811 q 550 744 550 772 m 314 744 q 294 697 314 717 q 247 678 275 678 q 200 697 219 678 q 181 744 181 717 q 200 792 181 772 q 247 811 219 811 q 294 792 275 811 q 314 744 314 772 m 599 0 l 539 122 l 192 122 l 132 0 l 28 0 l 28 8 l 317 608 l 415 608 l 703 8 l 703 0 l 599 0 m 372 500 l 364 500 l 228 206 l 503 206 l 372 500 z "},"Å":{"ha":731,"x_min":28,"x_max":703,"o":"m 514 817 q 472 712 514 754 q 367 669 429 669 q 262 712 304 669 q 219 817 219 754 q 262 922 219 879 q 367 964 304 964 q 472 922 429 964 q 514 817 514 879 m 599 0 l 539 122 l 192 122 l 132 0 l 28 0 l 28 8 l 317 608 l 415 608 l 703 8 l 703 0 l 599 0 m 447 817 q 424 874 447 850 q 367 897 400 897 q 310 874 333 897 q 286 817 286 850 q 310 760 286 783 q 367 736 333 736 q 424 760 400 736 q 447 817 447 783 m 372 500 l 364 500 l 228 206 l 503 206 l 372 500 z "},"Æ":{"ha":1192,"x_min":28,"x_max":1108,"o":"m 1108 321 q 1104 269 1108 292 l 613 269 q 641 190 621 228 q 691 125 661 153 q 759 81 721 97 q 842 65 797 65 q 957 84 899 65 q 1075 133 1015 103 l 1096 133 l 1096 25 q 960 -8 1025 -1 q 842 -14 894 -14 q 715 7 760 -14 q 639 60 669 28 l 647 0 l 543 0 l 529 122 l 221 122 l 132 0 l 28 0 l 31 8 l 458 608 l 557 608 l 571 490 q 675 584 611 547 q 817 621 739 621 q 932 603 879 621 q 1024 550 985 586 q 1086 457 1064 514 q 1108 321 1108 400 m 1003 351 q 992 422 1000 388 q 963 483 983 457 q 908 526 943 510 q 817 542 872 542 q 742 526 778 542 q 678 484 707 510 q 632 424 650 458 q 611 351 614 389 q 708 352 651 351 q 825 353 765 353 q 922 353 875 353 q 1003 351 968 353 m 518 206 q 503 353 510 281 q 489 500 497 425 l 481 500 l 276 206 l 518 206 z "},"Ç":{"ha":769,"x_min":83,"x_max":686,"o":"m 686 25 q 559 -8 615 -1 q 450 -14 503 -14 l 435 -14 l 432 -22 q 487 -60 467 -32 q 507 -121 507 -89 q 472 -203 507 -169 q 367 -237 436 -237 q 322 -234 346 -237 q 289 -226 299 -231 l 289 -150 l 318 -150 q 338 -168 325 -158 q 367 -178 351 -178 q 413 -160 397 -178 q 428 -121 428 -142 q 410 -83 428 -97 q 361 -68 393 -68 q 347 -68 354 -68 q 333 -69 339 -68 l 357 -4 q 249 36 299 8 q 162 103 199 64 q 104 194 125 143 q 83 303 83 244 q 113 431 83 372 q 193 531 143 489 q 310 597 243 574 q 450 621 376 621 q 559 615 503 621 q 686 582 615 608 l 686 474 l 665 474 q 557 522 607 504 q 450 540 507 540 q 350 524 397 540 q 267 478 303 508 q 210 403 232 447 q 189 303 189 358 q 210 202 189 246 q 267 128 232 158 q 350 83 303 99 q 450 67 397 67 q 557 85 507 67 q 665 133 607 103 l 686 133 l 686 25 z "},"È":{"ha":797,"x_min":83,"x_max":714,"o":"m 451 668 l 246 839 l 246 861 l 379 861 l 521 689 l 521 668 l 451 668 m 714 321 q 710 269 714 292 l 190 269 q 221 190 199 228 q 276 125 243 153 q 353 81 310 97 q 447 65 397 65 q 563 84 504 65 q 681 133 621 103 l 701 133 l 701 25 q 565 -8 631 -1 q 447 -14 500 -14 q 308 10 374 -14 q 192 78 242 35 q 113 180 142 121 q 83 308 83 239 q 104 435 83 378 q 165 534 125 493 q 263 598 204 575 q 394 621 321 621 q 508 603 451 621 q 611 550 565 586 q 685 457 657 514 q 714 321 714 400 m 608 351 q 592 422 606 388 q 551 483 578 457 q 485 526 525 510 q 394 542 446 542 q 305 526 342 542 q 243 484 268 510 q 205 424 218 458 q 189 351 192 389 l 608 351 z "},"É":{"ha":797,"x_min":83,"x_max":714,"o":"m 410 669 l 340 669 l 340 697 l 482 863 l 615 863 l 615 835 l 410 669 m 714 321 q 710 269 714 292 l 190 269 q 221 190 199 228 q 276 125 243 153 q 353 81 310 97 q 447 65 397 65 q 563 84 504 65 q 681 133 621 103 l 701 133 l 701 25 q 565 -8 631 -1 q 447 -14 500 -14 q 308 10 374 -14 q 192 78 242 35 q 113 180 142 121 q 83 308 83 239 q 104 435 83 378 q 165 534 125 493 q 263 598 204 575 q 394 621 321 621 q 508 603 451 621 q 611 550 565 586 q 685 457 657 514 q 714 321 714 400 m 608 351 q 592 422 606 388 q 551 483 578 457 q 485 526 525 510 q 394 542 446 542 q 305 526 342 542 q 243 484 268 510 q 205 424 218 458 q 189 351 192 389 l 608 351 z "},"Ê":{"ha":797,"x_min":83,"x_max":714,"o":"m 533 671 l 424 794 l 415 794 l 306 671 l 226 671 l 226 692 l 376 865 l 463 865 l 613 692 l 613 671 l 533 671 m 714 321 q 710 269 714 292 l 190 269 q 221 190 199 228 q 276 125 243 153 q 353 81 310 97 q 447 65 397 65 q 563 84 504 65 q 681 133 621 103 l 701 133 l 701 25 q 565 -8 631 -1 q 447 -14 500 -14 q 308 10 374 -14 q 192 78 242 35 q 113 180 142 121 q 83 308 83 239 q 104 435 83 378 q 165 534 125 493 q 263 598 204 575 q 394 621 321 621 q 508 603 451 621 q 611 550 565 586 q 685 457 657 514 q 714 321 714 400 m 608 351 q 592 422 606 388 q 551 483 578 457 q 485 526 525 510 q 394 542 446 542 q 305 526 342 542 q 243 484 268 510 q 205 424 218 458 q 189 351 192 389 l 608 351 z "},"Ë":{"ha":797,"x_min":83,"x_max":714,"o":"m 596 744 q 576 697 596 717 q 529 678 557 678 q 482 697 501 678 q 463 744 463 717 q 482 792 463 772 q 529 811 501 811 q 576 792 557 811 q 596 744 596 772 m 360 744 q 340 697 360 717 q 293 678 321 678 q 246 697 265 678 q 226 744 226 717 q 246 792 226 772 q 293 811 265 811 q 340 792 321 811 q 360 744 360 772 m 714 321 q 710 269 714 292 l 190 269 q 221 190 199 228 q 276 125 243 153 q 353 81 310 97 q 447 65 397 65 q 563 84 504 65 q 681 133 621 103 l 701 133 l 701 25 q 565 -8 631 -1 q 447 -14 500 -14 q 308 10 374 -14 q 192 78 242 35 q 113 180 142 121 q 83 308 83 239 q 104 435 83 378 q 165 534 125 493 q 263 598 204 575 q 394 621 321 621 q 508 603 451 621 q 611 550 565 586 q 685 457 657 514 q 714 321 714 400 m 608 351 q 592 422 606 388 q 551 483 578 457 q 485 526 525 510 q 394 542 446 542 q 305 526 342 542 q 243 484 268 510 q 205 424 218 458 q 189 351 192 389 l 608 351 z "},"Ì":{"ha":318,"x_min":19,"x_max":294,"o":"m 225 668 l 19 839 l 19 861 l 153 861 l 294 689 l 294 668 l 225 668 m 111 0 l 111 608 l 207 608 l 207 0 l 111 0 z "},"Í":{"ha":318,"x_min":26,"x_max":301,"o":"m 96 669 l 26 669 l 26 697 l 168 863 l 301 863 l 301 835 l 96 669 m 111 0 l 111 608 l 207 608 l 207 0 l 111 0 z "},"Î":{"ha":318,"x_min":-35,"x_max":353,"o":"m 274 671 l 164 794 l 156 794 l 46 671 l -35 671 l -35 692 l 115 865 l 201 865 l 353 692 l 353 671 l 274 671 m 111 0 l 111 608 l 207 608 l 207 0 l 111 0 z "},"Ï":{"ha":318,"x_min":-26,"x_max":344,"o":"m 344 744 q 325 697 344 717 q 278 678 306 678 q 230 697 250 678 q 210 744 210 717 q 229 792 210 772 q 276 811 249 811 q 324 792 304 811 q 344 744 344 772 m 108 744 q 89 697 108 717 q 42 678 69 678 q -6 697 14 678 q -26 744 -26 717 q -7 792 -26 772 q 40 811 13 811 q 88 792 68 811 q 107 744 107 772 l 108 744 m 111 0 l 111 608 l 207 608 l 207 0 l 111 0 z "},"Ð":{"ha":850,"x_min":56,"x_max":767,"o":"m 767 317 q 737 189 767 247 q 657 89 707 131 q 540 24 607 47 q 400 0 474 0 l 164 0 l 164 268 l 56 268 l 56 350 l 164 350 l 164 621 l 400 621 q 540 599 474 621 q 657 538 607 578 q 737 442 707 499 q 767 317 767 386 m 661 317 q 640 415 661 372 q 583 485 618 457 q 499 526 547 513 q 400 540 451 540 l 253 540 l 253 350 l 439 350 l 439 268 l 253 268 l 253 67 l 400 67 q 499 85 451 67 q 583 135 547 103 q 640 214 618 168 q 661 317 661 260 z "},"Ñ":{"ha":857,"x_min":111,"x_max":746,"o":"m 640 740 q 617 717 628 729 q 593 695 606 706 q 565 678 581 685 q 528 671 550 671 q 476 683 500 671 q 433 706 453 694 q 387 733 404 724 q 339 742 369 742 q 291 722 311 742 q 247 669 271 701 l 226 669 l 226 753 q 250 776 239 764 q 274 798 261 788 q 301 815 286 808 q 339 822 317 822 q 390 810 367 822 q 433 788 414 799 q 480 760 463 769 q 528 751 497 751 q 576 772 556 751 q 619 824 596 792 l 640 824 l 640 740 m 671 0 l 208 469 l 200 469 l 200 0 l 111 0 l 111 608 l 192 608 l 649 144 l 657 144 l 657 608 l 746 608 l 746 0 l 671 0 z "},"Ò":{"ha":897,"x_min":83,"x_max":814,"o":"m 493 668 l 288 839 l 288 861 l 421 861 l 563 689 l 563 668 l 493 668 m 814 304 q 789 185 814 243 q 717 83 764 128 q 603 13 671 39 q 449 -14 535 -14 q 294 13 363 -14 q 179 83 226 39 q 108 185 132 128 q 83 304 83 243 q 109 425 83 368 q 182 526 135 482 q 297 595 229 569 q 449 621 364 621 q 601 595 533 621 q 715 526 668 569 q 788 425 763 482 q 814 304 814 368 m 711 304 q 692 397 711 354 q 638 470 672 439 q 554 519 603 501 q 449 536 506 536 q 343 519 392 536 q 260 470 294 501 q 206 397 225 439 q 186 304 186 354 q 206 212 186 254 q 260 138 225 169 q 343 89 294 107 q 449 71 392 71 q 554 89 506 71 q 638 138 603 107 q 692 212 672 169 q 711 304 711 254 z "},"Ó":{"ha":897,"x_min":83,"x_max":814,"o":"m 424 669 l 354 669 l 354 697 l 496 863 l 629 863 l 629 835 l 424 669 m 814 304 q 789 185 814 243 q 717 83 764 128 q 603 13 671 39 q 449 -14 535 -14 q 294 13 363 -14 q 179 83 226 39 q 108 185 132 128 q 83 304 83 243 q 109 425 83 368 q 182 526 135 482 q 297 595 229 569 q 449 621 364 621 q 601 595 533 621 q 715 526 668 569 q 788 425 763 482 q 814 304 814 368 m 711 304 q 692 397 711 354 q 638 470 672 439 q 554 519 603 501 q 449 536 506 536 q 343 519 392 536 q 260 470 294 501 q 206 397 225 439 q 186 304 186 354 q 206 212 186 254 q 260 138 225 169 q 343 89 294 107 q 449 71 392 71 q 554 89 506 71 q 638 138 603 107 q 692 212 672 169 q 711 304 711 254 z "},"Ô":{"ha":897,"x_min":83,"x_max":814,"o":"m 563 671 l 453 794 l 444 794 l 335 671 l 256 671 l 256 692 l 406 865 l 492 865 l 642 692 l 642 671 l 563 671 m 814 304 q 789 185 814 243 q 717 83 764 128 q 603 13 671 39 q 449 -14 535 -14 q 294 13 363 -14 q 179 83 226 39 q 108 185 132 128 q 83 304 83 243 q 109 425 83 368 q 182 526 135 482 q 297 595 229 569 q 449 621 364 621 q 601 595 533 621 q 715 526 668 569 q 788 425 763 482 q 814 304 814 368 m 711 304 q 692 397 711 354 q 638 470 672 439 q 554 519 603 501 q 449 536 506 536 q 343 519 392 536 q 260 470 294 501 q 206 397 225 439 q 186 304 186 354 q 206 212 186 254 q 260 138 225 169 q 343 89 294 107 q 449 71 392 71 q 554 89 506 71 q 638 138 603 107 q 692 212 672 169 q 711 304 711 254 z "},"Õ":{"ha":897,"x_min":83,"x_max":814,"o":"m 656 740 q 632 717 643 729 q 608 695 621 706 q 581 678 596 685 q 543 671 565 671 q 492 683 515 671 q 449 706 468 694 q 402 733 419 724 q 354 742 385 742 q 306 722 326 742 q 263 669 286 701 l 242 669 l 242 753 q 265 776 254 764 q 289 798 276 788 q 317 815 301 808 q 354 822 332 822 q 406 810 382 822 q 449 788 429 799 q 495 760 478 769 q 543 751 513 751 q 591 772 571 751 q 635 824 611 792 l 656 824 l 656 740 m 814 304 q 789 185 814 243 q 717 83 764 128 q 603 13 671 39 q 449 -14 535 -14 q 294 13 363 -14 q 179 83 226 39 q 108 185 132 128 q 83 304 83 243 q 109 425 83 368 q 182 526 135 482 q 297 595 229 569 q 449 621 364 621 q 601 595 533 621 q 715 526 668 569 q 788 425 763 482 q 814 304 814 368 m 711 304 q 692 397 711 354 q 638 470 672 439 q 554 519 603 501 q 449 536 506 536 q 343 519 392 536 q 260 470 294 501 q 206 397 225 439 q 186 304 186 354 q 206 212 186 254 q 260 138 225 169 q 343 89 294 107 q 449 71 392 71 q 554 89 506 71 q 638 138 603 107 q 692 212 672 169 q 711 304 711 254 z "},"Ö":{"ha":897,"x_min":83,"x_max":814,"o":"m 633 744 q 614 697 633 717 q 567 678 594 678 q 519 697 539 678 q 500 744 500 717 q 519 792 500 772 q 567 811 539 811 q 614 792 594 811 q 633 744 633 772 m 397 744 q 378 697 397 717 q 331 678 358 678 q 283 697 303 678 q 264 744 264 717 q 283 792 264 772 q 331 811 303 811 q 378 792 358 811 q 397 744 397 772 m 814 304 q 789 185 814 243 q 717 83 764 128 q 603 13 671 39 q 449 -14 535 -14 q 294 13 363 -14 q 179 83 226 39 q 108 185 132 128 q 83 304 83 243 q 109 425 83 368 q 182 526 135 482 q 297 595 229 569 q 449 621 364 621 q 601 595 533 621 q 715 526 668 569 q 788 425 763 482 q 814 304 814 368 m 711 304 q 692 397 711 354 q 638 470 672 439 q 554 519 603 501 q 449 536 506 536 q 343 519 392 536 q 260 470 294 501 q 206 397 225 439 q 186 304 186 354 q 206 212 186 254 q 260 138 225 169 q 343 89 294 107 q 449 71 392 71 q 554 89 506 71 q 638 138 603 107 q 692 212 672 169 q 711 304 711 254 z "},"×":{"ha":725,"x_min":71,"x_max":653,"o":"m 593 31 l 361 264 l 129 31 l 71 89 l 303 321 l 74 550 l 132 610 l 361 379 l 592 610 l 650 550 l 421 321 l 653 89 l 593 31 z "},"Ø":{"ha":897,"x_min":71,"x_max":826,"o":"m 826 304 q 800 185 826 243 q 724 83 774 128 q 605 13 675 39 q 449 -14 535 -14 q 331 0 385 -14 q 232 40 276 14 l 138 -54 l 96 -12 l 183 75 q 100 179 129 119 q 71 304 71 239 q 98 425 71 368 q 175 526 125 482 q 294 595 225 569 q 449 621 364 621 q 569 606 514 621 q 671 563 625 590 l 756 647 l 797 607 l 719 528 q 799 426 771 483 q 826 304 826 369 m 724 304 q 705 392 724 351 q 653 463 686 432 l 299 107 q 449 71 364 71 q 556 89 506 71 q 643 138 606 107 q 702 212 681 169 q 724 304 724 254 m 606 497 q 449 536 536 536 q 342 519 392 536 q 254 470 292 501 q 195 397 217 439 q 174 304 174 354 q 194 215 174 256 q 250 142 214 174 l 606 497 z "},"Ù":{"ha":828,"x_min":111,"x_max":717,"o":"m 449 668 l 243 839 l 243 861 l 376 861 l 518 689 l 518 668 l 449 668 m 717 268 q 699 158 717 210 q 646 69 682 107 q 552 8 610 31 q 414 -14 494 -14 q 276 8 333 -14 q 182 69 218 31 q 128 158 146 107 q 111 268 111 210 l 111 608 l 207 608 l 207 268 q 219 195 207 231 q 256 133 231 160 q 319 90 281 106 q 414 74 358 74 q 508 90 469 74 q 572 133 547 106 q 609 195 597 160 q 621 268 621 231 l 621 608 l 717 608 l 717 268 z "},"Ú":{"ha":828,"x_min":111,"x_max":717,"o":"m 410 669 l 340 669 l 340 697 l 482 863 l 615 863 l 615 835 l 410 669 m 717 268 q 699 158 717 210 q 646 69 682 107 q 552 8 610 31 q 414 -14 494 -14 q 276 8 333 -14 q 182 69 218 31 q 128 158 146 107 q 111 268 111 210 l 111 608 l 207 608 l 207 268 q 219 195 207 231 q 256 133 231 160 q 319 90 281 106 q 414 74 358 74 q 508 90 469 74 q 572 133 547 106 q 609 195 597 160 q 621 268 621 231 l 621 608 l 717 608 l 717 268 z "},"Û":{"ha":828,"x_min":111,"x_max":717,"o":"m 528 671 l 418 794 l 410 794 l 300 671 l 221 671 l 221 692 l 371 865 l 457 865 l 607 692 l 607 671 l 528 671 m 717 268 q 699 158 717 210 q 646 69 682 107 q 552 8 610 31 q 414 -14 494 -14 q 276 8 333 -14 q 182 69 218 31 q 128 158 146 107 q 111 268 111 210 l 111 608 l 207 608 l 207 268 q 219 195 207 231 q 256 133 231 160 q 319 90 281 106 q 414 74 358 74 q 508 90 469 74 q 572 133 547 106 q 609 195 597 160 q 621 268 621 231 l 621 608 l 717 608 l 717 268 z "},"Ü":{"ha":828,"x_min":111,"x_max":717,"o":"m 599 744 q 579 697 599 717 q 532 678 560 678 q 485 697 504 678 q 465 744 465 717 q 485 792 465 772 q 532 811 504 811 q 579 792 560 811 q 599 744 599 772 m 363 744 q 343 697 363 717 q 296 678 324 678 q 249 697 268 678 q 229 744 229 717 q 249 792 229 772 q 296 811 268 811 q 343 792 324 811 q 363 744 363 772 m 717 268 q 699 158 717 210 q 646 69 682 107 q 552 8 610 31 q 414 -14 494 -14 q 276 8 333 -14 q 182 69 218 31 q 128 158 146 107 q 111 268 111 210 l 111 608 l 207 608 l 207 268 q 219 195 207 231 q 256 133 231 160 q 319 90 281 106 q 414 74 358 74 q 508 90 469 74 q 572 133 547 106 q 609 195 597 160 q 621 268 621 231 l 621 608 l 717 608 l 717 268 z "},"Ý":{"ha":746,"x_min":28,"x_max":718,"o":"m 364 669 l 294 669 l 294 697 l 436 863 l 569 863 l 569 835 l 364 669 m 306 -278 l 206 -278 l 206 -257 l 321 -26 l 28 588 l 28 608 l 135 608 l 369 92 l 378 92 l 613 608 l 718 608 l 718 588 l 306 -278 z "},"Þ":{"ha":663,"x_min":111,"x_max":579,"o":"m 579 401 q 568 322 579 363 q 530 249 557 282 q 456 196 503 217 q 339 175 410 175 l 210 175 l 210 0 l 111 0 l 111 774 l 210 774 l 210 610 l 339 610 q 451 592 406 610 q 526 544 497 574 q 567 478 554 515 q 579 401 579 440 m 485 401 q 477 447 485 424 q 451 488 469 469 q 406 519 433 507 q 339 531 378 531 l 210 531 l 210 246 l 339 246 q 448 288 411 246 q 485 401 485 331 z "},"ß":{"ha":710,"x_min":111,"x_max":626,"o":"m 626 175 q 611 105 626 139 q 567 44 596 71 q 497 2 539 18 q 403 -14 456 -14 q 335 -7 365 -14 q 283 3 304 0 l 283 90 l 304 90 q 352 72 325 79 q 403 65 379 65 q 489 95 454 65 q 524 175 524 125 q 487 258 524 231 q 399 285 450 285 l 328 285 l 328 363 l 381 363 q 445 385 419 363 q 471 447 471 407 q 439 516 471 490 q 349 542 407 542 q 247 506 288 542 q 207 399 207 471 l 207 0 l 111 0 l 111 399 q 176 564 111 507 q 353 621 242 621 q 517 572 461 621 q 574 447 574 524 q 566 405 574 424 q 547 373 558 386 q 520 351 535 360 q 493 339 506 343 l 493 332 q 588 283 549 322 q 626 175 626 243 z "},"à":{"ha":736,"x_min":42,"x_max":708,"o":"m 400 668 l 194 839 l 194 861 l 328 861 l 469 689 l 469 668 l 400 668 m 603 0 l 531 147 l 99 -43 l 42 28 l 339 544 l 300 621 l 300 629 l 406 629 l 708 8 l 708 0 l 603 0 m 386 449 l 378 449 l 171 78 l 176 72 l 489 233 l 386 449 z "},"á":{"ha":736,"x_min":42,"x_max":708,"o":"m 350 669 l 281 669 l 281 697 l 422 863 l 556 863 l 556 835 l 350 669 m 603 0 l 531 147 l 99 -43 l 42 28 l 339 544 l 300 621 l 300 629 l 406 629 l 708 8 l 708 0 l 603 0 m 386 449 l 378 449 l 171 78 l 176 72 l 489 233 l 386 449 z "},"â":{"ha":736,"x_min":42,"x_max":708,"o":"m 500 671 l 390 794 l 382 794 l 272 671 l 193 671 l 193 692 l 343 865 l 429 865 l 579 692 l 579 671 l 500 671 m 603 0 l 531 147 l 99 -43 l 42 28 l 339 544 l 300 621 l 300 629 l 406 629 l 708 8 l 708 0 l 603 0 m 386 449 l 378 449 l 171 78 l 176 72 l 489 233 l 386 449 z "},"ã":{"ha":736,"x_min":42,"x_max":708,"o":"m 564 740 q 540 717 551 729 q 517 695 529 706 q 489 678 504 685 q 451 671 474 671 q 400 683 424 671 q 357 706 376 694 q 310 733 328 724 q 263 742 293 742 q 215 722 235 742 q 171 669 194 701 l 150 669 l 150 753 q 174 776 163 764 q 197 798 185 788 q 225 815 210 808 q 263 822 240 822 q 314 810 290 822 q 357 788 338 799 q 403 760 386 769 q 451 751 421 751 q 499 772 479 751 q 543 824 519 792 l 564 824 l 564 740 m 603 0 l 531 147 l 99 -43 l 42 28 l 339 544 l 300 621 l 300 629 l 406 629 l 708 8 l 708 0 l 603 0 m 386 449 l 378 449 l 171 78 l 176 72 l 489 233 l 386 449 z "},"ä":{"ha":736,"x_min":42,"x_max":708,"o":"m 554 744 q 535 697 554 717 q 488 678 515 678 q 440 697 460 678 q 421 744 421 717 q 440 792 421 772 q 488 811 460 811 q 535 792 515 811 q 554 744 554 772 m 318 744 q 299 697 318 717 q 251 678 279 678 q 204 697 224 678 q 185 744 185 717 q 204 792 185 772 q 251 811 224 811 q 299 792 279 811 q 318 744 318 772 m 603 0 l 531 147 l 99 -43 l 42 28 l 339 544 l 300 621 l 300 629 l 406 629 l 708 8 l 708 0 l 603 0 m 386 449 l 378 449 l 171 78 l 176 72 l 489 233 l 386 449 z "},"å":{"ha":736,"x_min":42,"x_max":708,"o":"m 514 817 q 472 712 514 754 q 367 669 429 669 q 262 712 304 669 q 219 817 219 754 q 262 922 219 879 q 367 964 304 964 q 472 922 429 964 q 514 817 514 879 m 603 0 l 531 147 l 99 -43 l 42 28 l 339 544 l 300 621 l 300 629 l 406 629 l 708 8 l 708 0 l 603 0 m 447 817 q 424 874 447 850 q 367 897 400 897 q 310 874 333 897 q 286 817 286 850 q 310 760 286 783 q 367 736 333 736 q 424 760 400 736 q 447 817 447 783 m 386 449 l 378 449 l 171 78 l 176 72 l 489 233 l 386 449 z "},"æ":{"ha":1142,"x_min":42,"x_max":1058,"o":"m 1058 25 q 929 -8 988 -1 q 818 -14 871 -14 q 640 26 721 -14 q 513 136 560 65 l 99 -43 l 42 28 l 331 488 l 268 621 l 268 629 l 374 629 l 478 414 q 604 567 513 513 q 818 621 696 621 q 928 615 871 621 q 1057 582 986 608 l 1057 474 l 1036 474 q 926 523 976 504 q 818 542 875 542 q 644 489 714 542 q 560 351 575 436 l 993 351 l 993 269 l 561 269 q 592 190 569 228 q 647 125 614 153 q 724 81 681 97 q 818 65 768 65 q 926 84 875 65 q 1038 133 978 103 l 1058 133 l 1058 25 m 378 392 l 369 392 l 171 78 l 176 72 l 467 219 l 378 392 z "},"ç":{"ha":769,"x_min":83,"x_max":686,"o":"m 686 25 q 559 -8 615 -1 q 450 -14 503 -14 l 435 -14 l 432 -22 q 487 -60 467 -32 q 507 -121 507 -89 q 472 -203 507 -169 q 367 -237 436 -237 q 322 -234 346 -237 q 289 -226 299 -231 l 289 -150 l 318 -150 q 338 -168 325 -158 q 367 -178 351 -178 q 413 -160 397 -178 q 428 -121 428 -142 q 410 -83 428 -97 q 361 -68 393 -68 q 347 -68 354 -68 q 333 -69 339 -68 l 357 -4 q 249 36 299 8 q 162 103 199 64 q 104 194 125 143 q 83 303 83 244 q 113 431 83 372 q 193 531 143 489 q 310 597 243 574 q 450 621 376 621 q 559 615 503 621 q 686 582 615 608 l 686 474 l 665 474 q 557 522 607 504 q 450 540 507 540 q 350 524 397 540 q 267 478 303 508 q 210 403 232 447 q 189 303 189 358 q 210 202 189 246 q 267 128 232 158 q 350 83 303 99 q 450 67 397 67 q 557 85 507 67 q 665 133 607 103 l 686 133 l 686 25 z "},"è":{"ha":771,"x_min":83,"x_max":688,"o":"m 447 668 l 242 839 l 242 861 l 375 861 l 517 689 l 517 668 l 447 668 m 688 25 q 558 -8 617 -1 q 447 -14 500 -14 q 308 10 374 -14 q 192 78 242 35 q 113 180 142 121 q 83 308 83 239 q 113 435 83 378 q 192 534 142 493 q 308 598 242 575 q 447 621 374 621 q 558 615 500 621 q 686 582 615 608 l 686 474 l 665 474 q 555 523 606 504 q 447 542 504 542 q 274 489 343 542 q 189 351 204 436 l 622 351 l 622 269 l 190 269 q 221 190 199 228 q 276 125 243 153 q 353 81 310 97 q 447 65 397 65 q 556 84 504 65 q 667 133 607 103 l 688 133 l 688 25 z "},"é":{"ha":771,"x_min":83,"x_max":688,"o":"m 392 669 l 322 669 l 322 697 l 464 863 l 597 863 l 597 835 l 392 669 m 688 25 q 558 -8 617 -1 q 447 -14 500 -14 q 308 10 374 -14 q 192 78 242 35 q 113 180 142 121 q 83 308 83 239 q 113 435 83 378 q 192 534 142 493 q 308 598 242 575 q 447 621 374 621 q 558 615 500 621 q 686 582 615 608 l 686 474 l 665 474 q 555 523 606 504 q 447 542 504 542 q 274 489 343 542 q 189 351 204 436 l 622 351 l 622 269 l 190 269 q 221 190 199 228 q 276 125 243 153 q 353 81 310 97 q 447 65 397 65 q 556 84 504 65 q 667 133 607 103 l 688 133 l 688 25 z "},"ê":{"ha":771,"x_min":83,"x_max":688,"o":"m 546 671 l 436 794 l 428 794 l 318 671 l 239 671 l 239 692 l 389 865 l 475 865 l 625 692 l 625 671 l 546 671 m 688 25 q 558 -8 617 -1 q 447 -14 500 -14 q 308 10 374 -14 q 192 78 242 35 q 113 180 142 121 q 83 308 83 239 q 113 435 83 378 q 192 534 142 493 q 308 598 242 575 q 447 621 374 621 q 558 615 500 621 q 686 582 615 608 l 686 474 l 665 474 q 555 523 606 504 q 447 542 504 542 q 274 489 343 542 q 189 351 204 436 l 622 351 l 622 269 l 190 269 q 221 190 199 228 q 276 125 243 153 q 353 81 310 97 q 447 65 397 65 q 556 84 504 65 q 667 133 607 103 l 688 133 l 688 25 z "},"ë":{"ha":771,"x_min":83,"x_max":688,"o":"m 603 744 q 583 697 603 717 q 536 678 564 678 q 489 697 508 678 q 469 744 469 717 q 489 792 469 772 q 536 811 508 811 q 583 792 564 811 q 603 744 603 772 m 367 744 q 347 697 367 717 q 300 678 328 678 q 253 697 272 678 q 233 744 233 717 q 253 792 233 772 q 300 811 272 811 q 347 792 328 811 q 367 744 367 772 m 688 25 q 558 -8 617 -1 q 447 -14 500 -14 q 308 10 374 -14 q 192 78 242 35 q 113 180 142 121 q 83 308 83 239 q 113 435 83 378 q 192 534 142 493 q 308 598 242 575 q 447 621 374 621 q 558 615 500 621 q 686 582 615 608 l 686 474 l 665 474 q 555 523 606 504 q 447 542 504 542 q 274 489 343 542 q 189 351 204 436 l 622 351 l 622 269 l 190 269 q 221 190 199 228 q 276 125 243 153 q 353 81 310 97 q 447 65 397 65 q 556 84 504 65 q 667 133 607 103 l 688 133 l 688 25 z "},"ì":{"ha":318,"x_min":19,"x_max":294,"o":"m 225 668 l 19 839 l 19 861 l 153 861 l 294 689 l 294 668 l 225 668 m 111 0 l 111 608 l 207 608 l 207 0 l 111 0 z "},"í":{"ha":318,"x_min":26,"x_max":301,"o":"m 96 669 l 26 669 l 26 697 l 168 863 l 301 863 l 301 835 l 96 669 m 111 0 l 111 608 l 207 608 l 207 0 l 111 0 z "},"î":{"ha":318,"x_min":-35,"x_max":353,"o":"m 274 671 l 164 794 l 156 794 l 46 671 l -35 671 l -35 692 l 115 865 l 201 865 l 353 692 l 353 671 l 274 671 m 111 0 l 111 608 l 207 608 l 207 0 l 111 0 z "},"ï":{"ha":318,"x_min":-26,"x_max":344,"o":"m 344 744 q 325 697 344 717 q 278 678 306 678 q 230 697 250 678 q 210 744 210 717 q 229 792 210 772 q 276 811 249 811 q 324 792 304 811 q 344 744 344 772 m 108 744 q 89 697 108 717 q 42 678 69 678 q -6 697 14 678 q -26 744 -26 717 q -7 792 -26 772 q 40 811 13 811 q 88 792 68 811 q 107 744 107 772 l 108 744 m 111 0 l 111 608 l 207 608 l 207 0 l 111 0 z "},"ð":{"ha":886,"x_min":83,"x_max":803,"o":"m 803 304 q 778 185 803 243 q 706 83 753 128 q 592 13 660 39 q 438 -14 524 -14 q 275 11 342 -14 q 165 78 208 36 q 103 173 122 119 q 83 283 83 226 q 106 394 83 344 q 170 480 129 443 q 269 540 211 517 q 399 571 328 563 l 428 513 l 424 500 q 333 476 376 493 q 258 433 290 460 q 206 368 225 406 q 186 283 186 331 q 205 195 186 235 q 257 128 224 156 q 336 85 290 100 q 438 71 382 71 q 543 89 494 71 q 626 138 592 107 q 681 212 661 169 q 700 304 700 254 q 689 371 700 339 q 659 431 678 403 q 617 481 640 458 q 567 524 593 504 l 372 665 l 246 576 l 204 636 l 310 710 l 186 800 l 240 878 l 392 768 l 518 856 l 560 796 l 454 722 l 629 596 q 758 460 713 536 q 803 304 803 383 z "},"ñ":{"ha":857,"x_min":111,"x_max":746,"o":"m 632 740 q 608 717 619 729 q 585 695 597 706 q 557 678 572 685 q 519 671 542 671 q 468 683 492 671 q 425 706 444 694 q 378 733 396 724 q 331 742 361 742 q 283 722 303 742 q 239 669 263 701 l 218 669 l 218 753 q 242 776 231 764 q 265 798 253 788 q 293 815 278 808 q 331 822 308 822 q 382 810 358 822 q 425 788 406 799 q 472 760 454 769 q 519 751 489 751 q 567 772 547 751 q 611 824 588 792 l 632 824 l 632 740 m 671 0 l 208 469 l 200 469 l 200 0 l 111 0 l 111 608 l 192 608 l 649 144 l 657 144 l 657 608 l 746 608 l 746 0 l 671 0 z "},"ò":{"ha":922,"x_min":83,"x_max":839,"o":"m 511 668 l 306 839 l 306 861 l 439 861 l 581 689 l 581 668 l 511 668 m 839 304 q 813 185 839 243 q 737 83 786 128 q 617 13 688 39 q 461 -14 547 -14 q 305 13 375 -14 q 185 83 235 39 q 110 185 136 128 q 83 304 83 243 q 110 425 83 368 q 188 526 138 482 q 307 595 238 569 q 461 621 376 621 q 615 595 546 621 q 735 526 685 569 q 812 425 785 482 q 839 304 839 368 m 736 304 q 715 397 736 354 q 656 470 693 439 q 568 519 618 501 q 461 536 518 536 q 354 519 404 536 q 267 470 304 501 q 208 397 229 439 q 186 304 186 354 q 208 212 186 254 q 267 138 229 169 q 354 89 304 107 q 461 71 404 71 q 568 89 518 71 q 656 138 618 107 q 715 212 693 169 q 736 304 736 254 z "},"ó":{"ha":922,"x_min":83,"x_max":839,"o":"m 447 669 l 378 669 l 378 697 l 519 863 l 653 863 l 653 835 l 447 669 m 839 304 q 813 185 839 243 q 737 83 786 128 q 617 13 688 39 q 461 -14 547 -14 q 305 13 375 -14 q 185 83 235 39 q 110 185 136 128 q 83 304 83 243 q 110 425 83 368 q 188 526 138 482 q 307 595 238 569 q 461 621 376 621 q 615 595 546 621 q 735 526 685 569 q 812 425 785 482 q 839 304 839 368 m 736 304 q 715 397 736 354 q 656 470 693 439 q 568 519 618 501 q 461 536 518 536 q 354 519 404 536 q 267 470 304 501 q 208 397 229 439 q 186 304 186 354 q 208 212 186 254 q 267 138 229 169 q 354 89 304 107 q 461 71 404 71 q 568 89 518 71 q 656 138 618 107 q 715 212 693 169 q 736 304 736 254 z "},"ô":{"ha":922,"x_min":83,"x_max":839,"o":"m 575 671 l 465 794 l 457 794 l 347 671 l 268 671 l 268 692 l 418 865 l 504 865 l 654 692 l 654 671 l 575 671 m 839 304 q 813 185 839 243 q 737 83 786 128 q 617 13 688 39 q 461 -14 547 -14 q 305 13 375 -14 q 185 83 235 39 q 110 185 136 128 q 83 304 83 243 q 110 425 83 368 q 188 526 138 482 q 307 595 238 569 q 461 621 376 621 q 615 595 546 621 q 735 526 685 569 q 812 425 785 482 q 839 304 839 368 m 736 304 q 715 397 736 354 q 656 470 693 439 q 568 519 618 501 q 461 536 518 536 q 354 519 404 536 q 267 470 304 501 q 208 397 229 439 q 186 304 186 354 q 208 212 186 254 q 267 138 229 169 q 354 89 304 107 q 461 71 404 71 q 568 89 518 71 q 656 138 618 107 q 715 212 693 169 q 736 304 736 254 z "},"õ":{"ha":922,"x_min":83,"x_max":839,"o":"m 668 740 q 644 717 656 729 q 621 695 633 706 q 593 678 608 685 q 556 671 578 671 q 504 683 528 671 q 461 706 481 694 q 415 733 432 724 q 367 742 397 742 q 319 722 339 742 q 275 669 299 701 l 254 669 l 254 753 q 278 776 267 764 q 301 798 289 788 q 329 815 314 808 q 367 822 344 822 q 418 810 394 822 q 461 788 442 799 q 508 760 490 769 q 556 751 525 751 q 603 772 583 751 q 647 824 624 792 l 668 824 l 668 740 m 839 304 q 813 185 839 243 q 737 83 786 128 q 617 13 688 39 q 461 -14 547 -14 q 305 13 375 -14 q 185 83 235 39 q 110 185 136 128 q 83 304 83 243 q 110 425 83 368 q 188 526 138 482 q 307 595 238 569 q 461 621 376 621 q 615 595 546 621 q 735 526 685 569 q 812 425 785 482 q 839 304 839 368 m 736 304 q 715 397 736 354 q 656 470 693 439 q 568 519 618 501 q 461 536 518 536 q 354 519 404 536 q 267 470 304 501 q 208 397 229 439 q 186 304 186 354 q 208 212 186 254 q 267 138 229 169 q 354 89 304 107 q 461 71 404 71 q 568 89 518 71 q 656 138 618 107 q 715 212 693 169 q 736 304 736 254 z "},"ö":{"ha":922,"x_min":83,"x_max":839,"o":"m 646 744 q 626 697 646 717 q 579 678 607 678 q 532 697 551 678 q 513 744 513 717 q 532 792 513 772 q 579 811 551 811 q 626 792 607 811 q 646 744 646 772 m 410 744 q 390 697 410 717 q 343 678 371 678 q 296 697 315 678 q 276 744 276 717 q 296 792 276 772 q 343 811 315 811 q 390 792 371 811 q 410 744 410 772 m 839 304 q 813 185 839 243 q 737 83 786 128 q 617 13 688 39 q 461 -14 547 -14 q 305 13 375 -14 q 185 83 235 39 q 110 185 136 128 q 83 304 83 243 q 110 425 83 368 q 188 526 138 482 q 307 595 238 569 q 461 621 376 621 q 615 595 546 621 q 735 526 685 569 q 812 425 785 482 q 839 304 839 368 m 736 304 q 715 397 736 354 q 656 470 693 439 q 568 519 618 501 q 461 536 518 536 q 354 519 404 536 q 267 470 304 501 q 208 397 229 439 q 186 304 186 354 q 208 212 186 254 q 267 138 229 169 q 354 89 304 107 q 461 71 404 71 q 568 89 518 71 q 656 138 618 107 q 715 212 693 169 q 736 304 736 254 z "},"÷":{"ha":725,"x_min":89,"x_max":635,"o":"m 425 572 q 407 526 425 544 q 363 508 389 508 q 316 527 335 508 q 297 572 297 546 q 316 618 297 600 q 363 636 335 636 q 408 618 390 636 q 425 572 425 600 m 89 285 l 89 365 l 635 365 l 635 285 l 89 285 m 425 76 q 407 31 425 49 q 363 13 389 13 q 316 31 335 13 q 297 76 297 50 q 316 122 297 104 q 363 140 335 140 q 408 122 390 140 q 425 76 425 104 z "},"ø":{"ha":922,"x_min":83,"x_max":839,"o":"m 839 304 q 813 185 839 243 q 737 83 786 128 q 617 13 688 39 q 461 -14 547 -14 q 343 0 397 -14 q 244 40 289 14 l 150 -54 l 108 -12 l 196 75 q 113 179 142 119 q 83 304 83 239 q 110 425 83 368 q 188 526 138 482 q 307 595 238 569 q 461 621 376 621 q 582 606 526 621 q 683 563 638 590 l 768 647 l 810 607 l 732 528 q 811 426 783 483 q 839 304 839 369 m 736 304 q 717 392 736 351 q 665 463 699 432 l 311 107 q 461 71 376 71 q 568 89 518 71 q 656 138 618 107 q 715 212 693 169 q 736 304 736 254 m 618 497 q 461 536 549 536 q 354 519 404 536 q 267 470 304 501 q 208 397 229 439 q 186 304 186 354 q 206 215 186 256 q 263 142 226 174 l 618 497 z "},"ù":{"ha":831,"x_min":83,"x_max":719,"o":"m 483 668 l 278 839 l 278 861 l 411 861 l 553 689 l 553 668 l 483 668 m 626 0 l 626 58 l 629 94 l 624 94 q 588 59 610 78 q 535 24 565 40 q 469 -3 506 8 q 390 -14 432 -14 q 251 11 310 -14 q 156 78 193 36 q 101 174 118 119 q 83 286 83 228 q 100 392 83 340 q 140 488 117 444 q 187 564 163 532 q 225 608 211 596 l 343 608 l 343 600 q 292 546 319 578 q 240 474 264 514 q 199 388 215 435 q 183 286 183 340 q 195 210 183 249 q 232 142 207 172 q 296 92 257 111 q 390 74 335 74 q 471 88 433 74 q 539 123 508 103 q 591 165 569 143 q 624 204 613 188 l 624 608 l 719 608 l 719 0 l 626 0 z "},"ú":{"ha":831,"x_min":83,"x_max":719,"o":"m 433 669 l 364 669 l 364 697 l 506 863 l 639 863 l 639 835 l 433 669 m 626 0 l 626 58 l 629 94 l 624 94 q 588 59 610 78 q 535 24 565 40 q 469 -3 506 8 q 390 -14 432 -14 q 251 11 310 -14 q 156 78 193 36 q 101 174 118 119 q 83 286 83 228 q 100 392 83 340 q 140 488 117 444 q 187 564 163 532 q 225 608 211 596 l 343 608 l 343 600 q 292 546 319 578 q 240 474 264 514 q 199 388 215 435 q 183 286 183 340 q 195 210 183 249 q 232 142 207 172 q 296 92 257 111 q 390 74 335 74 q 471 88 433 74 q 539 123 508 103 q 591 165 569 143 q 624 204 613 188 l 624 608 l 719 608 l 719 0 l 626 0 z "},"û":{"ha":831,"x_min":83,"x_max":719,"o":"m 581 671 l 471 794 l 463 794 l 353 671 l 274 671 l 274 692 l 424 865 l 510 865 l 660 692 l 660 671 l 581 671 m 626 0 l 626 58 l 629 94 l 624 94 q 588 59 610 78 q 535 24 565 40 q 469 -3 506 8 q 390 -14 432 -14 q 251 11 310 -14 q 156 78 193 36 q 101 174 118 119 q 83 286 83 228 q 100 392 83 340 q 140 488 117 444 q 187 564 163 532 q 225 608 211 596 l 343 608 l 343 600 q 292 546 319 578 q 240 474 264 514 q 199 388 215 435 q 183 286 183 340 q 195 210 183 249 q 232 142 207 172 q 296 92 257 111 q 390 74 335 74 q 471 88 433 74 q 539 123 508 103 q 591 165 569 143 q 624 204 613 188 l 624 608 l 719 608 l 719 0 l 626 0 z "},"ü":{"ha":831,"x_min":83,"x_max":719,"o":"m 643 744 q 624 697 643 717 q 576 678 604 678 q 529 697 549 678 q 510 744 510 717 q 529 792 510 772 q 576 811 549 811 q 624 792 604 811 q 643 744 643 772 m 407 744 q 388 697 407 717 q 340 678 368 678 q 293 697 313 678 q 274 744 274 717 q 293 792 274 772 q 340 811 313 811 q 388 792 368 811 q 407 744 407 772 m 626 0 l 626 58 l 629 94 l 624 94 q 588 59 610 78 q 535 24 565 40 q 469 -3 506 8 q 390 -14 432 -14 q 251 11 310 -14 q 156 78 193 36 q 101 174 118 119 q 83 286 83 228 q 100 392 83 340 q 140 488 117 444 q 187 564 163 532 q 225 608 211 596 l 343 608 l 343 600 q 292 546 319 578 q 240 474 264 514 q 199 388 215 435 q 183 286 183 340 q 195 210 183 249 q 232 142 207 172 q 296 92 257 111 q 390 74 335 74 q 471 88 433 74 q 539 123 508 103 q 591 165 569 143 q 624 204 613 188 l 624 608 l 719 608 l 719 0 l 626 0 z "},"ý":{"ha":746,"x_min":28,"x_max":718,"o":"m 364 669 l 294 669 l 294 697 l 436 863 l 569 863 l 569 835 l 364 669 m 306 -278 l 206 -278 l 206 -257 l 321 -26 l 28 588 l 28 608 l 135 608 l 369 92 l 378 92 l 613 608 l 718 608 l 718 588 l 306 -278 z "},"þ":{"ha":754,"x_min":111,"x_max":671,"o":"m 671 313 q 651 185 671 244 q 592 82 631 126 q 500 12 554 38 q 378 -14 446 -14 q 276 1 319 -14 q 213 31 233 17 l 207 31 l 208 -21 l 208 -269 l 111 -269 l 111 878 l 210 878 l 210 608 l 356 608 q 494 586 435 608 q 593 525 554 564 q 651 431 632 486 q 671 313 671 376 m 568 313 q 512 473 568 417 q 356 529 456 529 l 208 529 l 208 132 q 231 114 217 124 q 267 94 246 104 q 315 78 288 85 q 378 72 343 72 q 449 88 415 72 q 510 135 483 104 q 552 210 536 165 q 568 313 568 254 z "},"ÿ":{"ha":746,"x_min":28,"x_max":718,"o":"m 561 744 q 542 697 561 717 q 494 678 522 678 q 447 697 467 678 q 428 744 428 717 q 447 792 428 772 q 494 811 467 811 q 542 792 522 811 q 561 744 561 772 m 325 744 q 306 697 325 717 q 258 678 286 678 q 211 697 231 678 q 192 744 192 717 q 211 792 192 772 q 258 811 231 811 q 306 792 286 811 q 325 744 325 772 m 306 -278 l 206 -278 l 206 -257 l 321 -26 l 28 588 l 28 608 l 135 608 l 369 92 l 378 92 l 613 608 l 718 608 l 718 588 l 306 -278 z "},"Œ":{"ha":1425,"x_min":83,"x_max":1342,"o":"m 1342 321 q 1338 269 1342 292 l 818 269 q 849 190 826 228 q 904 125 871 153 q 981 81 938 97 q 1075 65 1025 65 q 1190 84 1132 65 q 1308 133 1249 103 l 1329 133 l 1329 25 q 1193 -8 1258 -1 q 1075 -14 1128 -14 q 894 27 976 -14 q 764 139 813 68 q 640 29 719 72 q 449 -14 561 -14 q 294 13 363 -14 q 179 83 226 39 q 108 185 132 128 q 83 304 83 243 q 109 425 83 368 q 182 526 135 482 q 297 595 229 569 q 449 621 364 621 q 631 583 553 621 q 754 483 708 546 q 859 585 792 549 q 1022 621 926 621 q 1136 603 1079 621 q 1239 550 1193 586 q 1313 457 1285 514 q 1342 321 1342 400 m 1236 351 q 1219 422 1233 388 q 1179 483 1206 457 q 1113 526 1153 510 q 1022 542 1074 542 q 933 526 969 542 q 871 484 896 510 q 833 424 846 458 q 817 351 819 389 l 1236 351 m 711 304 q 692 397 711 354 q 638 470 672 439 q 554 519 603 501 q 449 536 506 536 q 343 519 392 536 q 260 470 294 501 q 206 397 225 439 q 186 304 186 354 q 206 212 186 254 q 260 138 225 169 q 343 89 294 107 q 449 71 392 71 q 554 89 506 71 q 638 138 603 107 q 692 212 672 169 q 711 304 711 254 z "},"œ":{"ha":1424,"x_min":83,"x_max":1340,"o":"m 1340 25 q 1211 -8 1269 -1 q 1100 -14 1153 -14 q 919 28 1001 -14 q 788 142 836 71 q 657 30 740 74 q 461 -14 574 -14 q 305 13 375 -14 q 185 83 235 39 q 110 185 136 128 q 83 304 83 243 q 110 425 83 368 q 188 526 138 482 q 307 595 238 569 q 461 621 376 621 q 653 578 571 621 q 785 469 736 536 q 917 581 833 540 q 1100 621 1000 621 q 1210 615 1153 621 q 1339 582 1268 608 l 1339 474 l 1318 474 q 1208 523 1258 504 q 1100 542 1157 542 q 926 489 996 542 q 842 351 857 436 l 1275 351 l 1275 269 l 843 269 q 874 190 851 228 q 929 125 896 153 q 1006 81 963 97 q 1100 65 1050 65 q 1208 84 1157 65 q 1319 133 1260 103 l 1340 133 l 1340 25 m 736 304 q 715 397 736 354 q 656 470 693 439 q 568 519 618 501 q 461 536 518 536 q 354 519 404 536 q 267 470 304 501 q 208 397 229 439 q 186 304 186 354 q 208 212 186 254 q 267 138 229 169 q 354 89 304 107 q 461 71 404 71 q 568 89 518 71 q 656 138 618 107 q 715 212 693 169 q 736 304 736 254 z "},"Š":{"ha":661,"x_min":81,"x_max":586,"o":"m 396 671 l 310 671 l 160 844 l 160 865 l 239 865 l 349 742 l 357 742 l 467 865 l 546 865 l 546 844 l 396 671 m 586 151 q 570 86 586 117 q 523 33 554 56 q 446 -2 492 11 q 340 -15 400 -15 q 267 -9 303 -15 q 199 6 231 -3 q 140 24 167 14 q 93 43 113 35 l 81 163 l 101 163 l 128 144 q 226 92 168 117 q 340 68 283 68 q 443 90 406 68 q 481 151 481 113 q 453 201 481 181 q 383 240 425 222 q 293 274 342 257 q 203 316 244 292 q 133 374 161 340 q 106 458 106 408 q 120 519 106 490 q 163 572 135 549 q 234 608 192 594 q 332 621 276 621 q 403 615 369 621 q 465 603 438 610 q 515 588 493 596 q 549 575 536 581 l 561 453 l 540 453 l 517 471 q 440 515 489 493 q 332 538 390 538 q 269 530 293 538 q 233 510 246 522 q 215 485 219 499 q 210 458 210 471 q 222 421 210 438 q 257 391 235 404 q 311 365 279 378 q 381 336 343 351 q 451 307 414 322 q 517 271 488 292 q 567 221 547 250 q 586 151 586 192 z "},"š":{"ha":661,"x_min":81,"x_max":586,"o":"m 390 671 l 304 671 l 154 844 l 154 865 l 233 865 l 343 742 l 351 742 l 461 865 l 540 865 l 540 844 l 390 671 m 586 151 q 570 86 586 117 q 523 33 554 56 q 446 -2 492 11 q 340 -15 400 -15 q 267 -9 303 -15 q 199 6 231 -3 q 140 24 167 14 q 93 43 113 35 l 81 163 l 101 163 l 128 144 q 226 92 168 117 q 340 68 283 68 q 443 90 406 68 q 481 151 481 113 q 453 201 481 181 q 383 240 425 222 q 293 274 342 257 q 203 316 244 292 q 133 374 161 340 q 106 458 106 408 q 120 519 106 490 q 163 572 135 549 q 234 608 192 594 q 332 621 276 621 q 403 615 369 621 q 465 603 438 610 q 515 588 493 596 q 549 575 536 581 l 561 453 l 540 453 l 517 471 q 440 515 489 493 q 332 538 390 538 q 269 530 293 538 q 233 510 246 522 q 215 485 219 499 q 210 458 210 471 q 222 421 210 438 q 257 391 235 404 q 311 365 279 378 q 381 336 343 351 q 451 307 414 322 q 517 271 488 292 q 567 221 547 250 q 586 151 586 192 z "},"Ÿ":{"ha":746,"x_min":28,"x_max":718,"o":"m 578 744 q 558 697 578 717 q 511 678 539 678 q 464 697 483 678 q 444 744 444 717 q 464 792 444 772 q 511 811 483 811 q 558 792 539 811 q 578 744 578 772 m 342 744 q 322 697 342 717 q 275 678 303 678 q 228 697 247 678 q 208 744 208 717 q 228 792 208 772 q 275 811 247 811 q 322 792 303 811 q 342 744 342 772 m 306 -278 l 206 -278 l 206 -257 l 321 -26 l 28 588 l 28 608 l 135 608 l 369 92 l 378 92 l 613 608 l 718 608 l 718 588 l 306 -278 z "},"Ž":{"ha":672,"x_min":83,"x_max":617,"o":"m 399 671 l 313 671 l 163 844 l 163 865 l 242 865 l 351 742 l 360 742 l 469 865 l 549 865 l 549 844 l 399 671 m 83 0 l 83 67 l 461 521 l 461 529 l 92 529 l 92 543 l 110 608 l 586 608 l 586 529 l 211 88 l 211 79 l 617 79 l 617 0 l 83 0 z "},"ž":{"ha":672,"x_min":83,"x_max":617,"o":"m 397 671 l 311 671 l 161 844 l 161 865 l 240 865 l 350 742 l 358 742 l 468 865 l 547 865 l 547 844 l 397 671 m 83 0 l 83 67 l 461 521 l 461 529 l 92 529 l 92 543 l 110 608 l 586 608 l 586 529 l 211 88 l 211 79 l 617 79 l 617 0 l 83 0 z "},"ƒ":{"ha":618,"x_min":-28,"x_max":618,"o":"m 597 629 q 535 665 572 649 q 456 682 499 682 q 391 669 417 682 q 351 635 365 656 q 330 591 336 615 q 324 546 324 567 l 324 353 l 542 353 l 542 269 l 324 269 l 324 3 q 310 -79 324 -40 q 271 -148 297 -118 q 206 -196 244 -178 q 117 -214 168 -214 q 64 -210 86 -214 q 25 -202 42 -207 q -4 -191 8 -197 q -28 -181 -17 -185 l -28 -74 l -7 -74 q 17 -93 6 -83 q 43 -110 29 -103 q 74 -122 57 -117 q 117 -126 92 -126 q 199 -89 171 -126 q 228 3 228 -51 l 228 269 l 113 269 l 113 353 l 228 353 l 228 546 q 240 622 228 582 q 278 694 251 661 q 349 748 306 726 q 456 769 392 769 q 556 758 517 769 q 618 736 594 746 l 618 629 l 597 629 z "},"ˆ":{"ha":556,"x_min":86,"x_max":472,"o":"m 393 671 l 283 794 l 275 794 l 165 671 l 86 671 l 86 692 l 236 865 l 322 865 l 472 692 l 472 671 l 393 671 z "},"˜":{"ha":556,"x_min":69,"x_max":483,"o":"m 483 740 q 460 717 471 729 q 436 695 449 706 q 408 678 424 685 q 371 671 393 671 q 319 683 343 671 q 276 706 296 694 q 230 733 247 724 q 182 742 213 742 q 134 722 154 742 q 90 669 114 701 l 69 669 l 69 753 q 93 776 82 764 q 117 798 104 788 q 144 815 129 808 q 182 822 160 822 q 233 810 210 822 q 276 788 257 799 q 323 760 306 769 q 371 751 340 751 q 419 772 399 751 q 463 824 439 792 l 483 824 l 483 740 z "},"–":{"ha":900,"x_min":111,"x_max":789,"o":"m 111 256 l 111 351 l 789 351 l 789 256 l 111 256 z "},"—":{"ha":1229,"x_min":111,"x_max":1118,"o":"m 111 256 l 111 351 l 1118 351 l 1118 256 l 111 256 z "},"‘":{"ha":329,"x_min":72,"x_max":257,"o":"m 257 435 q 237 385 257 406 q 188 365 217 365 q 136 380 158 365 q 100 417 114 394 q 79 468 86 440 q 72 524 72 496 q 97 628 72 585 q 167 703 122 671 l 203 663 q 171 624 188 647 q 154 553 154 600 q 161 524 154 536 q 179 504 168 511 q 233 484 208 504 q 257 435 257 464 z "},"’":{"ha":329,"x_min":81,"x_max":267,"o":"m 267 583 q 255 522 267 554 q 221 461 243 490 q 168 410 199 432 q 100 378 138 388 l 81 429 q 114 447 97 436 q 145 470 131 457 q 169 500 160 483 q 178 536 178 517 q 168 567 178 551 q 127 594 142 574 q 113 639 113 615 q 133 685 113 667 q 181 704 153 704 q 220 693 204 704 q 247 664 236 682 q 262 625 257 646 q 267 583 267 604 z "},"‚":{"ha":329,"x_min":72,"x_max":257,"o":"m 257 -22 q 232 -126 257 -83 q 163 -201 207 -169 l 126 -161 q 158 -122 142 -146 q 175 -51 175 -99 q 168 -22 175 -35 q 150 -3 161 -10 q 97 17 121 -3 q 72 67 72 38 q 92 116 72 96 q 142 136 113 136 q 193 119 171 136 q 229 76 215 101 q 250 24 243 51 q 257 -22 257 -3 z "},"“":{"ha":549,"x_min":72,"x_max":493,"o":"m 493 435 q 473 385 493 406 q 424 365 453 365 q 372 380 394 365 q 336 417 350 394 q 315 468 322 440 q 308 524 308 496 q 333 628 308 585 q 403 703 358 671 l 439 663 q 407 624 424 647 q 390 553 390 600 q 397 524 390 536 q 415 504 404 511 q 469 484 444 504 q 493 435 493 464 m 257 435 q 237 385 257 406 q 188 365 217 365 q 136 380 158 365 q 100 417 114 394 q 79 468 86 440 q 72 524 72 496 q 97 628 72 585 q 167 703 122 671 l 203 663 q 171 624 188 647 q 154 553 154 600 q 161 524 154 536 q 179 504 168 511 q 233 484 208 504 q 257 435 257 464 z "},"”":{"ha":549,"x_min":81,"x_max":475,"o":"m 475 583 q 463 522 475 554 q 429 461 451 490 q 376 410 407 432 q 308 378 346 388 l 289 429 q 322 447 306 436 q 353 470 339 457 q 377 500 368 483 q 386 536 386 517 q 376 567 386 551 q 335 594 350 574 q 321 639 321 615 q 341 685 321 667 q 389 704 361 704 q 428 693 413 704 q 455 664 444 682 q 470 625 465 646 q 475 583 475 604 m 267 583 q 255 522 267 554 q 221 461 243 490 q 168 410 199 432 q 100 378 138 388 l 81 429 q 114 447 97 436 q 145 470 131 457 q 169 500 160 483 q 178 536 178 517 q 168 567 178 551 q 127 594 142 574 q 113 639 113 615 q 133 685 113 667 q 181 704 153 704 q 220 693 204 704 q 247 664 236 682 q 262 625 257 646 q 267 583 267 604 z "},"„":{"ha":549,"x_min":67,"x_max":482,"o":"m 482 -22 q 457 -126 482 -83 q 388 -201 432 -169 l 351 -161 q 383 -122 367 -146 q 400 -51 400 -99 q 393 -22 400 -35 q 375 -3 386 -10 q 322 17 346 -3 q 297 67 297 38 q 317 116 297 96 q 367 136 338 136 q 418 119 396 136 q 454 76 440 101 q 475 24 468 51 q 482 -22 482 -3 m 251 -22 q 226 -126 251 -83 q 157 -201 201 -169 l 121 -161 q 153 -122 136 -146 q 169 -51 169 -99 q 163 -22 169 -35 q 144 -3 156 -10 q 91 17 115 -3 q 67 67 67 38 q 87 116 67 96 q 136 136 107 136 q 188 119 165 136 q 224 76 210 101 q 244 24 238 51 q 251 -22 251 -3 z "},"†":{"ha":667,"x_min":56,"x_max":611,"o":"m 508 281 l 353 311 q 361 230 353 275 q 383 156 369 185 l 383 53 l 358 -278 l 308 -278 l 283 53 l 283 156 q 306 230 297 185 q 314 311 314 275 l 158 281 l 56 281 l 56 383 l 158 383 l 314 350 l 281 506 l 281 608 l 383 608 l 383 506 l 353 350 l 508 383 l 611 383 l 611 281 l 508 281 z "},"‡":{"ha":667,"x_min":56,"x_max":611,"o":"m 508 124 l 365 151 q 374 100 369 124 q 383 65 378 76 l 383 -37 l 358 -278 l 308 -278 l 283 -37 l 283 65 q 293 100 289 76 q 301 151 297 124 l 158 124 l 56 124 l 56 226 l 158 226 l 307 194 q 312 263 310 231 q 314 311 314 294 l 158 281 l 56 281 l 56 383 l 158 383 l 314 350 l 281 506 l 281 608 l 383 608 l 383 506 l 353 350 l 508 383 l 611 383 l 611 281 l 508 281 l 353 311 q 355 263 353 294 q 360 194 357 231 l 508 226 l 611 226 l 611 124 l 508 124 z "},"•":{"ha":400,"x_min":83,"x_max":317,"o":"m 317 301 q 283 219 317 253 q 200 185 249 185 q 117 219 151 185 q 83 301 83 253 q 117 384 83 350 q 200 418 151 418 q 283 384 249 418 q 317 301 317 350 z "},"…":{"ha":878,"x_min":56,"x_max":822,"o":"m 822 72 q 801 21 822 42 q 750 0 781 0 q 699 21 719 0 q 678 72 678 42 q 699 124 678 103 q 750 144 719 144 q 801 124 781 144 q 822 72 822 103 m 511 72 q 490 21 511 42 q 439 0 469 0 q 388 21 408 0 q 367 72 367 42 q 388 124 367 103 q 439 144 408 144 q 490 124 469 144 q 511 72 511 103 m 200 72 q 179 21 200 42 q 128 0 158 0 q 76 21 97 0 q 56 72 56 42 q 76 124 56 103 q 128 144 97 144 q 179 124 158 144 q 200 72 200 103 z "},"‰":{"ha":1151,"x_min":56,"x_max":1096,"o":"m 1096 164 q 1089 102 1096 132 q 1065 48 1082 72 q 1017 9 1047 24 q 942 -6 988 -6 q 866 9 896 -6 q 819 48 836 24 q 796 102 803 72 q 789 164 789 132 q 796 226 789 196 q 820 281 803 257 q 867 318 838 304 q 942 332 896 332 q 1017 318 988 332 q 1064 281 1046 304 q 1089 226 1082 257 q 1096 164 1096 196 m 742 164 q 735 102 742 132 q 711 48 728 72 q 665 9 694 24 q 589 -6 635 -6 q 513 9 543 -6 q 466 48 483 24 q 442 102 449 72 q 435 164 435 132 q 442 226 435 196 q 467 281 449 257 q 514 318 485 304 q 589 332 543 332 q 664 318 635 332 q 710 281 693 304 q 735 226 728 257 q 742 164 742 196 m 213 -21 l 149 -21 l 149 -3 l 582 636 l 643 636 l 643 611 l 213 -21 m 363 454 q 356 392 363 422 q 332 339 349 363 q 285 301 315 315 q 210 286 256 286 q 134 301 164 286 q 87 339 104 315 q 63 392 69 363 q 56 454 56 422 q 63 517 56 486 q 88 571 69 547 q 135 608 106 594 q 210 622 164 622 q 285 608 256 622 q 331 571 314 594 q 356 517 349 547 q 363 454 363 486 m 1024 164 q 1008 242 1024 213 q 942 272 993 272 q 876 242 890 272 q 861 164 861 213 q 876 85 861 115 q 942 56 890 56 q 1008 85 993 56 q 1024 164 1024 115 m 669 164 q 655 242 669 213 q 589 272 640 272 q 522 242 538 272 q 507 164 507 213 q 522 85 507 115 q 589 56 538 56 q 655 85 640 56 q 669 164 669 115 m 290 454 q 276 533 290 503 q 210 564 261 564 q 143 533 158 564 q 128 454 128 503 q 143 376 128 406 q 210 346 158 346 q 276 376 261 346 q 290 454 290 406 z "},"‹":{"ha":400,"x_min":56,"x_max":344,"o":"m 247 89 l 56 308 l 247 528 l 344 528 l 344 507 l 144 308 l 344 110 l 344 89 l 247 89 z "},"›":{"ha":400,"x_min":56,"x_max":344,"o":"m 153 89 l 56 89 l 56 110 l 256 308 l 56 507 l 56 528 l 153 528 l 344 308 l 153 89 z "},"€":{"ha":725,"x_min":53,"x_max":678,"o":"m 678 25 q 566 -8 613 -1 q 471 -14 519 -14 q 257 47 340 -14 q 150 219 174 108 l 53 219 l 53 282 l 142 282 l 142 289 l 142 303 q 142 324 142 314 q 144 344 143 333 l 53 344 l 53 407 l 158 407 q 205 495 175 456 q 276 563 235 535 q 366 607 317 592 q 471 622 415 622 q 566 616 519 622 q 678 583 613 610 l 678 475 l 657 475 q 566 527 608 511 q 471 543 524 543 q 342 508 399 543 q 260 407 286 472 l 524 407 l 524 344 l 243 344 q 241 324 242 333 q 240 303 240 314 l 240 289 l 240 282 l 524 282 l 524 219 l 253 219 q 335 106 276 144 q 471 67 393 67 q 568 83 525 67 q 657 133 611 100 l 678 133 l 678 25 z "},"™":{"ha":708,"x_min":25,"x_max":671,"o":"m 611 583 l 611 800 l 525 583 l 489 583 l 404 800 l 404 583 l 344 583 l 344 878 l 432 878 l 508 686 l 583 878 l 671 878 l 671 583 l 611 583 m 188 824 l 188 583 l 128 583 l 128 824 l 25 824 l 25 878 l 292 878 l 292 824 l 188 824 z "}}}
